<?xml version="1.0" standalone="no"?>
<!DOCTYPE svg PUBLIC "-//W3C//DTD SVG 1.1//EN" "http://www.w3.org/Graphics/SVG/1.1/DTD/svg11.dtd" >
<svg xmlns="http://www.w3.org/2000/svg">
<metadata>
<json>
<![CDATA[
{
	"fontFamily": "coconut-icon-rounded-outline",
	"majorVersion": 1,
	"minorVersion": 0,
	"designer": "Sophia Bai",
	"copyright": "Sophia Bai",
	"version": "Version 1.0",
	"fontId": "coconut-icon-rounded-outline",
	"psName": "coconut-icon-rounded-outline",
	"subFamily": "Regular",
	"fullName": "coconut-icon-rounded-outline",
	"description": "Font generated by IcoMoon."
}
]]>
</json>
</metadata>
<defs>
<font id="coconut-icon-rounded-outline" horiz-adv-x="1024">
<font-face units-per-em="1024" ascent="960" descent="-64" />
<missing-glyph horiz-adv-x="1024" />
<glyph unicode="&#x20;" horiz-adv-x="512" d="" />
<glyph unicode="&#xe900;" glyph-name="user" data-tags="user" d="M512 704c70.692 0 128-57.308 128-128s-57.308-128-128-128c-70.692 0-128 57.308-128 128v0c0.082 70.659 57.341 127.918 127.992 128h0.008zM512 746.667c-94.257 0-170.667-76.41-170.667-170.667s76.41-170.667 170.667-170.667c94.257 0 170.667 76.41 170.667 170.667v0c0 94.257-76.41 170.667-170.667 170.667v0zM725.333 277.333c47.106-0.055 85.278-38.227 85.333-85.328v-0.005c-0.027-23.553-19.114-42.639-42.664-42.667h-512.003c-23.553 0.027-42.639 19.114-42.667 42.664v0.003c0.055 47.106 38.227 85.278 85.328 85.333h426.672zM725.333 320h-426.667c-70.692 0-128-57.308-128-128v0c0-47.128 38.205-85.333 85.333-85.333v0h512c47.128 0 85.333 38.205 85.333 85.333v0c0 70.692-57.308 128-128 128v0z" />
<glyph unicode="&#xe901;" glyph-name="user_group" data-tags="user_group" d="M725.307 405.333c82.475 0 149.333 66.859 149.333 149.333s-66.859 149.333-149.333 149.333c-82.475 0-149.333-66.859-149.333-149.333v0c0-82.475 66.859-149.333 149.333-149.333v0zM725.307 661.333c58.91 0 106.667-47.756 106.667-106.667s-47.756-106.667-106.667-106.667c-58.91 0-106.667 47.756-106.667 106.667v0c0.068 58.883 47.784 106.598 106.66 106.667h0.007zM853.333 362.667h-256c-32.934-0.087-62.908-12.692-85.429-33.305l0.096 0.087c-22.425 20.527-52.399 33.132-85.316 33.219h-256.018c-70.692 0-128-57.308-128-128v0c0-47.128 38.205-85.333 85.333-85.333v0h341.333c15.756 0.087 30.469 4.475 43.047 12.048l-0.381-0.213c12.198-7.36 26.911-11.748 42.642-11.836h341.357c47.128 0 85.333 38.205 85.333 85.333v0c0 70.692-57.308 128-128 128v0zM469.333 192h-341.333c-23.553 0.028-42.639 19.114-42.667 42.664v0.003c0.055 47.106 38.227 85.278 85.328 85.333h256.005c47.106-0.055 85.278-38.227 85.333-85.328v-0.005c-0.028-23.553-19.114-42.639-42.664-42.667h-0.003zM896 192h-341.333c-3.899 0.267-7.529 1.037-10.951 2.247l0.287-0.089c6.621 11.671 10.563 25.618 10.664 40.478v0.030c-0.151 22.586-6.193 43.729-16.665 62.009l0.327-0.619c15.243 14.792 36.056 23.919 59 23.943h256.005c47.106-0.055 85.278-38.227 85.333-85.328v-0.005c-0.028-23.553-19.114-42.639-42.664-42.667h-0.003zM298.669 405.333c82.475 0 149.333 66.859 149.333 149.333s-66.859 149.333-149.333 149.333c-82.475 0-149.333-66.859-149.333-149.333v0c0-82.475 66.859-149.333 149.333-149.333v0zM298.669 661.333c58.91 0 106.667-47.756 106.667-106.667s-47.756-106.667-106.667-106.667c-58.91 0-106.667 47.756-106.667 106.667v0c0.068 58.883 47.784 106.598 106.66 106.667h0.007z" />
<glyph unicode="&#xe902;" glyph-name="user_circle" data-tags="user_circle" d="M512 704c-82.475 0-149.333-66.859-149.333-149.333s66.859-149.333 149.333-149.333c82.475 0 149.333 66.859 149.333 149.333v0c0 82.475-66.859 149.333-149.333 149.333v0zM512 448c-58.91 0-106.667 47.756-106.667 106.667s47.756 106.667 106.667 106.667c58.91 0 106.667-47.756 106.667-106.667v0c-0.069-58.882-47.784-106.597-106.66-106.667h-0.007zM512 832c-212.077 0-384-171.923-384-384s171.923-384 384-384c212.077 0 384 171.923 384 384v0c0 212.077-171.923 384-384 384v0zM298.667 226.797v7.87c0 47.128 38.205 85.333 85.333 85.333v0h256c47.128 0 85.333-38.205 85.333-85.333v0-7.87c0.003-0.259 0.004-0.564 0.004-0.87 0-30.27-15.965-56.811-39.934-71.662l-0.36-0.208c-49.479-29.776-109.205-47.39-173.044-47.39s-123.565 17.614-174.582 48.246l1.538-0.856c-24.329 15.059-40.293 41.6-40.293 71.87 0 0.306 0.002 0.612 0.005 0.917v-0.047zM768 222.985v11.682c0 70.692-57.308 128-128 128v0h-256c-70.692 0-128-57.308-128-128v0-11.682c-52.982 59.855-85.333 139.035-85.333 225.771 0 188.513 152.82 341.333 341.333 341.333s341.333-152.82 341.333-341.333c0-86.736-32.352-165.916-85.647-226.131l0.313 0.361z" />
<glyph unicode="&#xe903;" glyph-name="user_square" data-tags="user_square" d="M768 789.333h-512c-47.128 0-85.333-38.205-85.333-85.333v0-512c0-47.128 38.205-85.333 85.333-85.333v0h512c47.128 0 85.333 38.205 85.333 85.333v0 512c0 47.128-38.205 85.333-85.333 85.333v0zM341.333 149.333c-23.553 0.028-42.639 19.114-42.667 42.664v0.003c0.055 47.106 38.227 85.278 85.328 85.333h256.005c47.107-0.054 85.279-38.227 85.333-85.328v-0.005c-0.028-23.553-19.114-42.639-42.664-42.667h-0.003zM810.667 192c-0.028-23.553-19.114-42.639-42.664-42.667h-11.838c7.36 12.198 11.748 26.911 11.836 42.642v0.024c0 70.692-57.308 128-128 128v0h-256c-70.692 0-128-57.308-128-128v0c0.087-15.756 4.475-30.469 12.048-43.047l-0.213 0.381h-11.836c-23.553 0.028-42.639 19.114-42.667 42.664v512.003c0.028 23.553 19.114 42.639 42.664 42.667h512.003c23.553-0.028 42.639-19.114 42.667-42.664v-0.003zM512.003 661.333c-82.475 0-149.333-66.859-149.333-149.333s66.859-149.333 149.333-149.333c82.475 0 149.333 66.859 149.333 149.333v0c0 82.475-66.859 149.333-149.333 149.333v0zM512.003 405.333c-58.91 0-106.667 47.756-106.667 106.667s47.756 106.667 106.667 106.667c58.91 0 106.667-47.756 106.667-106.667v0c-0.068-58.883-47.784-106.598-106.66-106.667h-0.007z" />
<glyph unicode="&#xe904;" glyph-name="add_user" data-tags="add_user" d="M981.333 426.667c0-0.004 0-0.008 0-0.012 0-11.775-9.546-21.321-21.321-21.321-0.004 0-0.009 0-0.013 0h-149.333v-149.333c0-11.782-9.551-21.333-21.333-21.333s-21.333 9.551-21.333 21.333v0 149.333h-149.333c-11.782 0-21.333 9.551-21.333 21.333s9.551 21.333 21.333 21.333v0h149.333v149.333c0 11.782 9.551 21.333 21.333 21.333s21.333-9.551 21.333-21.333v0-149.333h149.333c0.004 0 0.008 0 0.012 0 11.775 0 21.321-9.546 21.321-21.321 0-0.004 0-0.009 0-0.013v0.001zM682.667 192c0-47.128-38.205-85.333-85.333-85.333v0h-426.667c-47.128 0-85.333 38.205-85.333 85.333v0c0 70.692 57.308 128 128 128v0h341.333c70.692 0 128-57.308 128-128v0zM640 192c-0.055 47.106-38.227 85.278-85.328 85.333h-341.339c-47.106-0.055-85.278-38.227-85.333-85.328v-0.005c0.028-23.553 19.114-42.639 42.664-42.667h426.669c23.553 0.028 42.639 19.114 42.667 42.664v0.003zM213.333 576c0 94.257 76.41 170.667 170.667 170.667s170.667-76.41 170.667-170.667c0-94.257-76.41-170.667-170.667-170.667v0c-94.257 0-170.667 76.41-170.667 170.667v0zM256 576c0-70.692 57.308-128 128-128s128 57.308 128 128c0 70.692-57.308 128-128 128v0c-70.659-0.083-127.917-57.341-128-127.992v-0.008z" />
<glyph unicode="&#xe905;" glyph-name="accessibility" data-tags="accessibility" d="M512 661.333c47.128 0 85.333 38.205 85.333 85.333s-38.205 85.333-85.333 85.333c-47.128 0-85.333-38.205-85.333-85.333v0c0-47.128 38.205-85.333 85.333-85.333v0zM512 789.333c23.564 0 42.667-19.103 42.667-42.667s-19.103-42.667-42.667-42.667c-23.564 0-42.667 19.103-42.667 42.667v0c0.028 23.553 19.114 42.639 42.664 42.667h0.003zM917.333 576h-267.885c-23.346 26.167-57.138 42.587-94.767 42.667h-85.347c-37.643-0.080-71.435-16.5-94.672-42.541l-0.11-0.125h-267.885c-11.782 0-21.333-9.551-21.333-21.333s9.551-21.333 21.333-21.333v0h242.505c-4.822-12.666-7.684-27.309-7.838-42.6l-0.001-0.067v-128c0-47.128 38.205-85.333 85.333-85.333v0-234.667c0-11.782 9.551-21.333 21.333-21.333s21.333 9.551 21.333 21.333v0 234.667h85.333v-234.667c0-11.782 9.551-21.333 21.333-21.333s21.333 9.551 21.333 21.333v0 234.667c47.128 0 85.333 38.205 85.333 85.333v0 128c-0.155 15.358-3.016 30.001-8.128 43.54l0.289-0.873h242.505c11.782 0 21.333 9.551 21.333 21.333s-9.551 21.333-21.333 21.333v0zM640 362.667c-0.028-23.553-19.114-42.639-42.664-42.667h-170.669c-23.553 0.028-42.639 19.114-42.667 42.664v128.003c0.055 47.106 38.227 85.278 85.328 85.333h85.339c47.107-0.054 85.279-38.227 85.333-85.328v-0.005z" />
<glyph unicode="&#xe906;" glyph-name="family" data-tags="family" d="M320 533.333c58.91 0 106.667 47.756 106.667 106.667s-47.756 106.667-106.667 106.667c-58.91 0-106.667-47.756-106.667-106.667v0c0-58.91 47.756-106.667 106.667-106.667v0zM320 704c35.346 0 64-28.654 64-64s-28.654-64-64-64c-35.346 0-64 28.654-64 64v0c0.042 35.329 28.671 63.958 63.996 64h0.004zM704 533.333c58.91 0 106.667 47.756 106.667 106.667s-47.756 106.667-106.667 106.667c-58.91 0-106.667-47.756-106.667-106.667v0c0-58.91 47.756-106.667 106.667-106.667v0zM704 704c35.346 0 64-28.654 64-64s-28.654-64-64-64c-35.346 0-64 28.654-64 64v0c0.042 35.329 28.671 63.958 63.996 64h0.004zM768 490.667h-128v-42.667h128c47.107-0.054 85.279-38.227 85.333-85.328v-128.005c-0.028-23.553-19.114-42.639-42.664-42.667h-139.838c7.36 12.198 11.748 26.911 11.836 42.642v0.024c0 47.128-38.205 85.333-85.333 85.333v0h-170.667c-47.128 0-85.333-38.205-85.333-85.333v0c0.087-15.756 4.475-30.469 12.048-43.047l-0.213 0.381h-139.836c-23.553 0.028-42.639 19.114-42.667 42.664v128.003c0.055 47.106 38.227 85.278 85.328 85.333h128.005v42.667h-128c-70.692 0-128-57.308-128-128v0-128c0-47.128 38.205-85.333 85.333-85.333v0h597.333c47.128 0 85.333 38.205 85.333 85.333v0 128c0 70.692-57.308 128-128 128v0zM426.667 192c-23.564 0-42.667 19.103-42.667 42.667s19.103 42.667 42.667 42.667v0h170.667c23.564 0 42.667-19.103 42.667-42.667s-19.103-42.667-42.667-42.667v0zM512 362.667c47.128 0 85.333 38.205 85.333 85.333s-38.205 85.333-85.333 85.333c-47.128 0-85.333-38.205-85.333-85.333v0c0-47.128 38.205-85.333 85.333-85.333v0zM512 490.667c23.564 0 42.667-19.103 42.667-42.667s-19.103-42.667-42.667-42.667c-23.564 0-42.667 19.103-42.667 42.667v0c0.028 23.553 19.114 42.639 42.664 42.667h0.003z" />
<glyph unicode="&#xe907;" glyph-name="parental_control" data-tags="parental_control" d="M426.667 490.667c70.692 0 128 57.308 128 128s-57.308 128-128 128c-70.692 0-128-57.308-128-128v0c0-70.692 57.308-128 128-128v0zM426.667 704c47.128 0 85.333-38.205 85.333-85.333s-38.205-85.333-85.333-85.333c-47.128 0-85.333 38.205-85.333 85.333v0c0.055 47.106 38.227 85.278 85.328 85.333h0.005zM682.667 362.667c47.128 0 85.333 38.205 85.333 85.333s-38.205 85.333-85.333 85.333c-47.128 0-85.333-38.205-85.333-85.333v0c0-47.128 38.205-85.333 85.333-85.333v0zM682.667 490.667c23.564 0 42.667-19.103 42.667-42.667s-19.103-42.667-42.667-42.667c-23.564 0-42.667 19.103-42.667 42.667v0c0.028 23.553 19.114 42.639 42.664 42.667h0.003zM768 320h-170.667c-47.128 0-85.333-38.205-85.333-85.333v0-42.667c0.087-15.756 4.475-30.469 12.048-43.047l-0.213 0.381h-267.836c-23.553 0.028-42.639 19.114-42.667 42.664v128.003c0.055 47.106 38.227 85.278 85.328 85.333h256.005v42.667h-256c-70.692 0-128-57.308-128-128v0-128c0-47.128 38.205-85.333 85.333-85.333v0h512c47.128 0 85.333 38.205 85.333 85.333v0 42.667c0 47.128-38.205 85.333-85.333 85.333v0zM810.667 192c-0.028-23.553-19.114-42.639-42.664-42.667h-170.669c-23.553 0.028-42.639 19.114-42.667 42.664v42.67c0.028 23.553 19.114 42.639 42.664 42.667h170.669c23.553-0.028 42.639-19.114 42.667-42.664v-0.003z" />
<glyph unicode="&#xe908;" glyph-name="address_book" data-tags="address_book" d="M768 789.333h-426.667c-47.128 0-85.333-38.205-85.333-85.333v0-85.333h-64c-11.782 0-21.333-9.551-21.333-21.333s9.551-21.333 21.333-21.333v0h64v-106.667h-64c-11.782 0-21.333-9.551-21.333-21.333s9.551-21.333 21.333-21.333v0h64v-106.667h-64c-11.782 0-21.333-9.551-21.333-21.333s9.551-21.333 21.333-21.333v0h64v-85.333c0-47.128 38.205-85.333 85.333-85.333v0h426.667c47.128 0 85.333 38.205 85.333 85.333v0 512c0 47.128-38.205 85.333-85.333 85.333v0zM810.667 192c-0.028-23.553-19.114-42.639-42.664-42.667h-426.669c-23.553 0.028-42.639 19.114-42.667 42.664v512.003c0.028 23.553 19.114 42.639 42.664 42.667h426.669c23.553-0.028 42.639-19.114 42.667-42.664v-0.003zM554.667 448c47.128 0 85.333 38.205 85.333 85.333s-38.205 85.333-85.333 85.333c-47.128 0-85.333-38.205-85.333-85.333v0c0-47.128 38.205-85.333 85.333-85.333v0zM554.667 576c23.564 0 42.667-19.103 42.667-42.667s-19.103-42.667-42.667-42.667c-23.564 0-42.667 19.103-42.667 42.667v0c0.028 23.553 19.114 42.639 42.664 42.667h0.003zM640 405.333h-170.667c-47.128 0-85.333-38.205-85.333-85.333v0-42.667c0-23.564 19.103-42.667 42.667-42.667v0h256c23.564 0 42.667 19.103 42.667 42.667v0 42.667c0 47.128-38.205 85.333-85.333 85.333v0zM682.667 277.333h-256v42.667c0.028 23.553 19.114 42.639 42.664 42.667h170.669c23.553-0.028 42.639-19.114 42.667-42.664v-0.003z" />
<glyph unicode="&#xe909;" glyph-name="block_user" data-tags="block_user" d="M426.667 405.333c94.257 0 170.667 76.41 170.667 170.667s-76.41 170.667-170.667 170.667c-94.257 0-170.667-76.41-170.667-170.667v0c0-94.257 76.41-170.667 170.667-170.667v0zM426.667 704c70.692 0 128-57.308 128-128s-57.308-128-128-128c-70.692 0-128 57.308-128 128v0c0.081 70.66 57.34 127.919 127.992 128h0.008zM810.667 533.333c-117.821 0-213.333-95.513-213.333-213.333v0h-384c-70.692 0-128-57.308-128-128v0c0-47.128 38.205-85.333 85.333-85.333v0h512c18.325 0.008 35.289 5.83 49.149 15.722l-0.258-0.175c23.461-9.664 50.697-15.275 79.245-15.275 117.746 0 213.197 95.452 213.197 213.197s-95.452 213.197-213.197 213.197c-0.047 0-0.095 0-0.142 0h0.007zM810.667 490.667c39.495-0.163 75.761-13.85 104.441-36.666l-0.345 0.265-238.359-238.359c-22.552 28.334-36.24 64.6-36.404 104.057v0.037c0.109 94.213 76.454 170.557 170.656 170.667h0.011zM682.667 149.333h-512c-23.553 0.028-42.639 19.114-42.667 42.664v0.003c0.055 47.106 38.227 85.278 85.328 85.333h388.305c11.241-52.703 40.734-97.148 81.406-127.407l0.567-0.403c-0.329-0.008-0.605-0.19-0.939-0.19zM810.667 149.333c-39.494 0.163-75.76 13.85-104.439 36.666l0.345-0.265 238.359 238.359c22.551-28.334 36.238-64.6 36.401-104.057v-0.037c-0.11-94.212-76.454-170.557-170.656-170.667h-0.011z" />
<glyph unicode="&#xe90a;" glyph-name="wrench" data-tags="wrench" d="M779.241 247.163c7.721-7.721 12.497-18.388 12.497-30.17 0-23.564-19.103-42.667-42.667-42.667s-42.667 19.103-42.667 42.667c0 11.782 4.776 22.449 12.497 30.17v0c7.721 7.721 18.388 12.496 30.17 12.496s22.448-4.775 30.17-12.496v0zM384.005 789.333c-0.089 0-0.195 0-0.301 0-26.459 0-51.786-4.848-75.14-13.704l1.457 0.485 77.011-76.402c15.6-15.468 25.258-36.908 25.258-60.603 0-47.128-38.205-85.333-85.333-85.333-23.696 0-45.136 9.658-60.598 25.253l-78.875 78.876c-10.624-24.398-16.804-52.822-16.804-82.689 0-13.281 1.222-26.277 3.56-38.88l-0.201 1.307c14.835-76.64 68.767-137.89 139.785-162.874l1.505-0.461c20.49-7.377 44.133-11.641 68.773-11.641 21.023 0 41.321 3.104 60.46 8.88l-1.48-0.384 24.18 6.961 221.472-221.469c15.443-15.442 36.777-24.994 60.342-24.994 25.2 0 47.848 10.922 63.47 28.291l0.069 0.078c12.461 15.364 20.007 35.156 20.007 56.711 0 25.868-10.868 49.199-28.287 65.673l-0.042 0.040-219.145 219.146 5.743 23.353c4.090 15.053 6.44 32.336 6.44 50.169 0 34.673-8.884 67.271-24.5 95.642l0.518-1.027c-33.512 65.911-97.902 111.891-173.596 119.026l-0.868 0.066q-7.491 0.507-14.878 0.505zM384.005 832q8.812 0 17.762-0.603c91.745-8.374 169.014-63.21 208.748-140.507l0.683-1.463c18.161-33.020 28.845-72.366 28.845-114.207 0-21.487-2.818-42.316-8.103-62.137l0.381 1.68 202.14-202.139c25.194-24.22 40.846-58.207 40.846-95.85 0-32.562-11.712-62.388-31.153-85.497l0.166 0.202c-23.532-26.129-57.479-42.485-95.245-42.485-35.347 0-67.348 14.327-90.512 37.49l-203.68 203.677c-21.354-6.438-45.893-10.144-71.298-10.144-141.182 0-255.633 114.451-255.633 255.633 0 35.488 7.232 69.288 20.301 100.005l-0.632-1.672c6.66 15.753 21.984 26.607 39.843 26.607 0.039 0 0.079 0 0.118 0h-0.006c0.023 0 0.050 0 0.078 0 11.732 0 22.346-4.786 29.996-12.512l78.874-78.874c7.711-7.659 18.335-12.393 30.065-12.393 23.564 0 42.667 19.103 42.667 42.667 0 11.73-4.733 22.354-12.394 30.067l-76.366 76.364c-7.799 7.748-12.627 18.479-12.627 30.338 0 18.058 11.194 33.502 27.022 39.77l0.289 0.101c26.317 10.058 56.756 15.883 88.555 15.883 0.095 0 0.19 0 0.284 0h-0.014z" />
<glyph unicode="&#xe90b;" glyph-name="setting" data-tags="setting" d="M512 661.333c-117.821 0-213.333-95.513-213.333-213.333s95.513-213.333 213.333-213.333c117.821 0 213.333 95.513 213.333 213.333v0c0 117.821-95.513 213.333-213.333 213.333v0zM512 277.333c-94.257 0-170.667 76.41-170.667 170.667s76.41 170.667 170.667 170.667c94.257 0 170.667-76.41 170.667-170.667v0c-0.109-94.213-76.454-170.557-170.656-170.667h-0.011zM907.458 539.375l-63.021-11.104c-0.331-0.058-0.575-0.279-0.901-0.352-16.3 66.307-50.195 123.148-96.438 167.125l-0.143 0.135c0.227 0.247 0.555 0.331 0.774 0.591l41.146 49.018c3.104 3.679 4.99 8.473 4.99 13.708 0 11.777-9.547 21.324-21.324 21.324-6.542 0-12.396-2.946-16.307-7.583l-0.026-0.032-41.146-49.021c-0.232-0.276-0.281-0.628-0.497-0.912-50.32 37.617-112.704 61.738-180.481 65.945l-0.967 0.048c0.018 0.374 0.216 0.689 0.216 1.067v64c0 11.782-9.551 21.333-21.333 21.333s-21.333-9.551-21.333-21.333v0-64c0-0.378 0.198-0.693 0.216-1.067-68.743-4.254-131.128-28.374-182.339-66.627l0.891 0.636c-0.216 0.284-0.266 0.636-0.497 0.912l-41.146 49.021c-3.938 4.669-9.792 7.615-16.333 7.615-11.777 0-21.324-9.547-21.324-21.324 0-5.235 1.886-10.029 5.017-13.74l-0.026 0.032 41.146-49.021c0.218-0.26 0.547-0.344 0.774-0.591-46.387-44.113-80.281-100.953-96.092-164.922l-0.489-2.339c-0.326 0.073-0.57 0.294-0.901 0.352l-63.019 11.104c-1.115 0.207-2.398 0.325-3.708 0.325-11.777 0-21.325-9.547-21.325-21.325 0-10.467 7.541-19.172 17.486-20.98l0.13-0.020 63.021-11.104 0.786-0.070c-1.395-11.415-2.217-24.683-2.268-38.133v-0.068c0.033-55.375 13.325-107.639 36.872-153.797l-0.89 1.922c-0.299-0.156-0.628-0.143-0.919-0.312l-55.417-32c-6.424-3.758-10.67-10.623-10.67-18.479 0-11.784 9.553-21.337 21.337-21.337 3.927 0 7.607 1.061 10.767 2.912l-0.101-0.055 55.417 32c0.227 0.131 0.346 0.36 0.565 0.497 36.507-54.368 86.738-96.947 145.801-123.293l2.176-0.867c-0.099-0.245-0.305-0.401-0.396-0.651l-21.875-60.146c-0.831-2.189-1.312-4.721-1.312-7.365 0-11.779 9.548-21.327 21.327-21.327 9.19 0 17.022 5.812 20.021 13.961l0.048 0.148 21.875 60.145c0.096 0.261 0.036 0.529 0.12 0.792 28.912-8.937 62.149-14.083 96.588-14.083s67.676 5.147 98.984 14.713l-2.396-0.63c0.085-0.263 0.023-0.531 0.12-0.792l21.875-60.145c3.047-8.297 10.879-14.109 20.068-14.109 11.779 0 21.327 9.548 21.327 21.327 0 2.644-0.481 5.175-1.361 7.512l0.049-0.147-21.875 60.146c-0.091 0.25-0.297 0.406-0.396 0.651 61.239 27.214 111.47 69.792 147.2 122.934l0.777 1.226c0.218-0.138 0.338-0.367 0.565-0.497l55.417-32c3.060-1.797 6.739-2.858 10.667-2.858 11.784 0 21.337 9.553 21.337 21.337 0 7.857-4.247 14.722-10.57 18.425l-0.101 0.055-55.417 32c-0.291 0.171-0.622 0.159-0.919 0.312 22.657 44.236 35.948 96.499 35.982 151.864v0.011c-0.050 13.517-0.871 26.785-2.423 39.829l0.158-1.628 0.786 0.070 63.019 11.104c10.076 1.827 17.616 10.533 17.616 21 0 11.777-9.547 21.325-21.325 21.325-1.311 0-2.593-0.118-3.839-0.345l0.13 0.020zM512 149.333c-164.949 0-298.667 133.718-298.667 298.667s133.718 298.667 298.667 298.667c164.949 0 298.667-133.718 298.667-298.667v0c-0.193-164.872-133.795-298.474-298.648-298.667h-0.019z" />
<glyph unicode="&#xe90c;" glyph-name="edit" data-tags="edit" d="M832.75 771.456c-20.427 20.527-48.7 33.23-79.939 33.23-0.109 0-0.218 0-0.328 0h-0.275c-0.006 0-0.013 0-0.020 0-31.447 0-59.888-12.871-80.342-33.632l-0.014-0.014-495-500.040c-3.811-3.841-6.167-9.131-6.167-14.971 0-0.010 0-0.020 0-0.031v0.002-128c0-0.004 0-0.008 0-0.012 0-11.775 9.546-21.321 21.321-21.321 0.004 0 0.009 0 0.013 0h127.999c0.001 0 0.002 0 0.003 0 5.89 0 11.222 2.388 15.080 6.25l497.855 497.854c20.492 20.558 33.162 48.923 33.162 80.248 0 31.419-12.746 59.86-33.35 80.436l-0.001 0.001zM311.168 149.333h-97.835v97.896l424.482 428.789 100.020-100.018zM802.773 640.939l-34.773-34.773-100.169 100.171 34.336 34.685c12.757 12.966 30.493 21 50.105 21 0.014 0 0.028 0 0.042 0h-0.002c1.084 0.067 2.351 0.105 3.626 0.105 18.595 0 35.3-8.098 46.778-20.96l0.054-0.062c12.793-12.829 20.702-30.532 20.702-50.083s-7.91-37.254-20.704-50.084l0.002 0.002z" />
<glyph unicode="&#xe90d;" glyph-name="cut" data-tags="cut" d="M725.333 362.667c-27.761-0.029-53.43-8.956-74.318-24.081l0.37 0.255-109.331 109.318 262.362 262.091c3.705 3.832 5.989 9.060 5.989 14.821 0 11.782-9.551 21.333-21.333 21.333-5.761 0-10.988-2.283-14.827-5.994l0.006 0.006-262.365-262.094-262.137 262.096c-3.832 3.705-9.060 5.989-14.821 5.989-11.782 0-21.333-9.551-21.333-21.333 0-5.761 2.283-10.988 5.994-14.827l262.112-262.075-109.284-109.168c-20.761 14.909-46.688 23.841-74.702 23.841-71.218 0-128.951-57.734-128.951-128.951s57.734-128.951 128.951-128.951c71.218 0 128.951 57.734 128.951 128.951 0 28.135-9.010 54.165-24.303 75.363l0.261-0.38 109.245 109.133 109.341-109.326c-14.679-20.53-23.471-46.144-23.471-73.811 0-70.58 57.216-127.796 127.796-127.796s127.796 57.216 127.796 127.796c0 70.58-57.216 127.796-127.796 127.796-0.072 0-0.144 0-0.216 0h0.011zM298.667 149.333c-47.128 0-85.333 38.205-85.333 85.333s38.205 85.333 85.333 85.333c47.128 0 85.333-38.205 85.333-85.333v0c-0.056-47.106-38.227-85.277-85.328-85.333h-0.005zM725.333 149.333c-47.128 0-85.333 38.205-85.333 85.333s38.205 85.333 85.333 85.333c47.128 0 85.333-38.205 85.333-85.333v0c-0.056-47.106-38.227-85.277-85.328-85.333h-0.005z" />
<glyph unicode="&#xe90e;" glyph-name="copy" data-tags="copy" d="M554.667 512c0-11.782-9.551-21.333-21.333-21.333v0h-213.336c-11.782 0-21.333 9.551-21.333 21.333s9.551 21.333 21.333 21.333v0h213.336c11.782 0 21.333-9.551 21.333-21.333v0zM533.333 448.005h-213.336c-11.782 0-21.333-9.551-21.333-21.333s9.551-21.333 21.333-21.333v0h213.336c11.782 0 21.333 9.551 21.333 21.333s-9.551 21.333-21.333 21.333v0zM533.333 362.662h-213.336c-11.782 0-21.333-9.551-21.333-21.333s9.551-21.333 21.333-21.333v0h213.336c11.782 0 21.333 9.551 21.333 21.333s-9.551 21.333-21.333 21.333v0zM533.333 277.333h-213.336c-11.782 0-21.333-9.551-21.333-21.333s9.551-21.333 21.333-21.333v0h213.336c11.782 0 21.333 9.551 21.333 21.333s-9.551 21.333-21.333 21.333v0zM853.333 704v-384c0-47.128-38.205-85.333-85.333-85.333v0h-85.333v-42.667c0-47.128-38.205-85.333-85.333-85.333v0h-341.333c-47.128 0-85.333 38.205-85.333 85.333v0 384c0 47.128 38.205 85.333 85.333 85.333v0h85.333v42.667c0 47.128 38.205 85.333 85.333 85.333v0h341.333c47.128 0 85.333-38.205 85.333-85.333v0zM640 576c-0.028 23.553-19.114 42.639-42.664 42.667h-341.336c-23.553-0.028-42.639-19.114-42.667-42.664v-384.003c0.028-23.553 19.114-42.639 42.664-42.667h341.336c23.553 0.028 42.639 19.114 42.667 42.664v0.003zM810.667 704c-0.028 23.553-19.114 42.639-42.664 42.667h-341.336c-23.553-0.028-42.639-19.114-42.667-42.664v-42.67h213.333c47.128 0 85.333-38.205 85.333-85.333v0-298.667h85.333c23.553 0.028 42.639 19.114 42.667 42.664v0.003z" />
<glyph unicode="&#xe90f;" glyph-name="paste" data-tags="paste" d="M725.333 469.333c0-11.782-9.551-21.333-21.333-21.333v0h-213.336c-11.782 0-21.333 9.551-21.333 21.333s9.551 21.333 21.333 21.333v0h213.336c11.782 0 21.333-9.551 21.333-21.333v0zM704 405.333h-213.336c-11.782 0-21.333-9.551-21.333-21.333s9.551-21.333 21.333-21.333v0h213.336c11.782 0 21.333 9.551 21.333 21.333s-9.551 21.333-21.333 21.333v0zM704 320h-213.336c-11.782 0-21.333-9.551-21.333-21.333s9.551-21.333 21.333-21.333v0h213.336c11.782 0 21.333 9.551 21.333 21.333s-9.551 21.333-21.333 21.333v0zM853.333 533.333v-341.333c0-47.128-38.205-85.333-85.333-85.333v0h-341.333c-47.128 0-85.333 38.205-85.333 85.333v0 42.667h-85.333c-47.128 0-85.333 38.205-85.333 85.333v0 384c0 47.128 38.205 85.333 85.333 85.333v0h106.664c0 35.346 28.654 64 64 64s64-28.654 64-64v0h106.669c47.128 0 85.333-38.205 85.333-85.333v0-85.333h85.333c47.128 0 85.333-38.205 85.333-85.333v0zM426.667 618.667h213.333v85.333c-0.028 23.553-19.114 42.639-42.664 42.667h-42.669v-42.667h-256v42.667h-42.667c-23.553-0.028-42.639-19.114-42.667-42.664v-384.003c0.028-23.553 19.114-42.639 42.664-42.667h85.336v256c0 47.128 38.205 85.333 85.333 85.333v0zM810.667 533.333c-0.028 23.553-19.114 42.639-42.664 42.667h-341.336c-23.553-0.028-42.639-19.114-42.667-42.664v-341.336c0.028-23.553 19.114-42.639 42.664-42.667h341.336c23.553 0.028 42.639 19.114 42.667 42.664v0.003z" />
<glyph unicode="&#xe910;" glyph-name="fingerprint" data-tags="fingerprint" d="M661.333 21.333c-0.007 0-0.016 0-0.025 0-5.883 0-11.208 2.389-15.058 6.249v0c-27.493 28.399-50.813 61.067-68.824 96.866l-1.030 2.259c-1.48 2.828-2.348 6.177-2.348 9.729 0 11.779 9.549 21.328 21.328 21.328 8.227 0 15.366-4.658 18.923-11.481l0.056-0.118c16.925-33.938 37.645-63.076 62.167-88.525l-0.104 0.109c3.86-3.86 6.247-9.193 6.247-15.084 0-11.781-9.55-21.332-21.33-21.333v0zM564.583 206.938c8.543 2.908 14.578 10.86 14.578 20.222 0 2.417-0.402 4.741-1.144 6.907l0.045-0.15c-21.027 62.614-36.835 135.806-44.44 211.418l-0.351 4.311c-0.881 11.053-10.067 19.689-21.271 19.689-11.783 0-21.335-9.552-21.335-21.335 0-0.579 0.023-1.153 0.068-1.72l-0.005 0.075c8.104-83.583 24.66-160.259 49.021-233.366l-2.146 7.428c2.9-8.544 10.85-14.583 20.211-14.583 2.422 0 4.749 0.404 6.918 1.149l-0.15-0.045zM847.084 198.25c3.861 3.86 6.249 9.192 6.249 15.083s-2.388 11.223-6.249 15.083v0c-77.896 77.918-79.084 218.189-79.084 219.585 0 0.116 0 0.254 0 0.392 0 33.212-6.347 64.941-17.896 94.041l0.604-1.725c-3.184 8.036-10.888 13.615-19.896 13.615-11.788 0-21.344-9.556-21.344-21.344 0-2.781 0.532-5.437 1.499-7.873l-0.051 0.144c9.125-22.809 14.417-49.248 14.417-76.923 0-0.115 0-0.23 0-0.345v0.018c0-6.458 1.041-159.209 91.583-249.75 3.86-3.861 9.192-6.249 15.083-6.249s11.223 2.388 15.083 6.249v0zM374.5 110.251c5.764 3.877 9.505 10.374 9.505 17.746 0 4.412-1.34 8.512-3.636 11.913l0.048-0.076c-80.646 120.978-81.75 306.312-81.75 308.166 0.002 117.821 95.516 213.333 213.337 213.333 51.704 0 99.112-18.393 136.038-48.994l-0.354 0.285c3.672-3.074 8.445-4.941 13.655-4.941 11.786 0 21.34 9.554 21.34 21.34 0 6.641-3.034 12.574-7.792 16.488l-0.037 0.029c-43.889 36.383-100.784 58.458-162.836 58.458-141.389 0-256.008-114.613-256.018-255.999v-0.001c0-8.104 1.021-199.979 88.917-331.833 3.88-5.761 10.379-9.5 17.75-9.5 4.41 0 8.508 1.338 11.909 3.631l-0.076-0.048zM548.417 27.584c3.861 3.86 6.249 9.192 6.249 15.083s-2.388 11.223-6.249 15.083v0c-64.729 64.729-107.896 190.625-121.979 286.667-1.559 10.378-10.413 18.245-21.104 18.245-11.779 0-21.328-9.549-21.328-21.328 0-1.088 0.081-2.157 0.239-3.201l-0.015 0.118c13.979-95.479 57.479-234.125 134.021-310.667 3.86-3.861 9.192-6.249 15.083-6.249s11.223 2.388 15.083 6.249v0zM761.75 112.917c3.861 3.86 6.249 9.192 6.249 15.083s-2.388 11.223-6.249 15.083v0c-120.044 120.063-121.75 324.209-121.75 326.251 0 70.692-57.308 128-128 128s-128-57.308-128-128v0c0-11.782 9.551-21.333 21.333-21.333s21.333 9.551 21.333 21.333v0c0 47.128 38.205 85.333 85.333 85.333s85.333-38.205 85.333-85.333v0c0-9.062 1.521-223.688 134.25-356.417 3.86-3.861 9.192-6.249 15.083-6.249s11.223 2.388 15.083 6.249v0zM201.312 188.875c8.067 3.168 13.674 10.888 13.674 19.918 0 2.757-0.523 5.391-1.474 7.81l0.050-0.145c-25.315 68.668-40.867 147.974-42.878 230.637l-0.017 0.905c0 0.012 0 0.028 0 0.043 0 59.708 15.313 115.839 42.225 164.681l-0.891-1.765c1.637 2.948 2.601 6.466 2.601 10.208 0 11.781-9.55 21.33-21.33 21.33-8.038 0-15.037-4.446-18.674-11.013l-0.056-0.109c-29.299-52.972-46.542-116.139-46.542-183.332 0-0.015 0-0.031 0-0.046v0.003c1.803-89.035 18.414-173.639 47.458-252.217l-1.729 5.342c3.171-8.063 10.889-13.667 19.916-13.667v0c2.757 0.003 5.392 0.523 7.814 1.467l-0.147-0.050zM932.417 283.583c3.861 3.86 6.249 9.192 6.249 15.083s-2.388 11.223-6.249 15.083v0c-29.771 29.772-36.374 107.023-36.417 134.252 0 0.003 0 0.006 0 0.009 0 212.071-171.918 383.989-383.989 383.989-105.844 0-201.686-42.824-271.145-112.092l0.009 0.009c-3.922-3.87-6.351-9.244-6.351-15.186 0-11.781 9.55-21.331 21.331-21.331 5.921 0 11.278 2.412 15.143 6.308l0.001 0.001c61.733 61.561 146.925 99.625 241.007 99.625 188.51 0 341.327-152.817 341.327-341.327 0-0.002 0-0.003 0-0.005v0.001c0-11.813 1.375-116.875 48.916-164.417 3.86-3.861 9.192-6.249 15.083-6.249s11.223 2.388 15.083 6.249v0z" />
<glyph unicode="&#xe911;" glyph-name="delete" data-tags="delete" d="M554.669 256v170.669c0 11.782 9.551 21.333 21.333 21.333s21.333-9.551 21.333-21.333v0-170.669c0-11.782-9.551-21.333-21.333-21.333s-21.333 9.551-21.333 21.333v0zM448.005 234.667c11.782 0 21.333 9.551 21.333 21.333v0 170.669c0 11.782-9.551 21.333-21.333 21.333s-21.333-9.551-21.333-21.333v0-170.669c0-11.782 9.551-21.333 21.333-21.333v0zM789.336 746.664l-106.669 0.003-30.874 61.748c-7.161 14.095-21.552 23.585-38.16 23.586h-203.264c-16.609 0-31.001-9.49-38.050-23.343l-0.112-0.242-30.873-61.75h-106.667c-11.782 0-21.333-9.551-21.333-21.333s9.551-21.333 21.333-21.333v0h554.669c11.782 0 21.333 9.551 21.333 21.333s-9.551 21.333-21.333 21.333v0zM256 618.667h512v-426.667c0-70.692-57.308-128-128-128v0h-256c-70.692 0-128 57.308-128 128v0zM298.667 192c0.056-47.106 38.227-85.277 85.328-85.333h256.005c47.106 0.056 85.277 38.227 85.333 85.328v384.005h-426.667z" />
<glyph unicode="&#xe912;" glyph-name="permanently_delete" data-tags="permanently_delete" d="M406.406 265.911l75.422 75.422-75.424 75.424c-3.86 3.861-6.248 9.194-6.248 15.085 0 11.782 9.551 21.334 21.334 21.334 5.891 0 11.225-2.388 15.086-6.249l75.424-75.424 75.427 75.427c3.85 3.799 9.141 6.145 14.981 6.145 11.782 0 21.333-9.551 21.333-21.333 0-5.839-2.346-11.131-6.147-14.983l-75.425-75.425 75.427-75.427c3.799-3.85 6.145-9.141 6.145-14.981 0-11.782-9.551-21.333-21.333-21.333-5.839 0-11.131 2.346-14.983 6.147l-75.425 75.425-75.424-75.424c-3.861-3.861-9.194-6.249-15.086-6.249-11.782 0-21.334 9.551-21.334 21.334 0 5.891 2.388 11.224 6.248 15.085v0zM789.336 746.664l-106.669 0.003-30.875 61.747c-7.16 14.096-21.552 23.586-38.16 23.586h-203.264c0 0-0.001 0-0.001 0-16.608 0-31-9.49-38.048-23.344l-0.112-0.242-30.873-61.75h-106.667c-11.782 0-21.333-9.551-21.333-21.333s9.551-21.333 21.333-21.333v0h554.669c11.782 0 21.333 9.551 21.333 21.333s-9.551 21.333-21.333 21.333v0zM256 618.667h512v-426.667c0-70.692-57.308-128-128-128v0h-256c-70.692 0-128 57.308-128 128v0zM298.667 192c0.056-47.106 38.227-85.277 85.328-85.333h256.005c47.106 0.056 85.277 38.227 85.333 85.328v384.005h-426.667z" />
<glyph unicode="&#xe913;" glyph-name="restore_delete" data-tags="restore_delete" d="M341.333 384v85.333c0 11.782 9.551 21.333 21.333 21.333s21.333-9.551 21.333-21.333v0-51.216c26.566 43.63 73.872 72.322 127.879 72.322 82.412 0 149.219-66.808 149.219-149.219s-66.808-149.219-149.219-149.219c-60.705 0-112.944 36.25-136.251 88.284l-0.379 0.946c-1.111 2.5-1.758 5.417-1.758 8.484 0 11.792 9.56 21.352 21.352 21.352 8.633 0 16.069-5.123 19.434-12.494l0.055-0.133c16.909-38.042 54.366-64.090 97.906-64.090 58.999 0 106.826 47.828 106.826 106.826s-47.828 106.826-106.826 106.826c-34.801 0-65.715-16.641-85.219-42.399l-0.194-0.267h21.175c11.782 0 21.333-9.551 21.333-21.333s-9.551-21.333-21.333-21.333v0h-85.333c-0.004 0-0.008 0-0.012 0-11.775 0-21.321 9.546-21.321 21.321 0 0.004 0 0.009 0 0.013v-0.001zM789.336 746.664l-106.669 0.003-30.875 61.747c-7.16 14.096-21.552 23.586-38.16 23.586h-203.264c0 0-0.001 0-0.001 0-16.608 0-31-9.49-38.048-23.344l-0.112-0.242-30.873-61.75h-106.667c-11.782 0-21.333-9.551-21.333-21.333s9.551-21.333 21.333-21.333v0h554.669c11.782 0 21.333 9.551 21.333 21.333s-9.551 21.333-21.333 21.333v0zM256 618.667h512v-426.667c0-70.692-57.308-128-128-128v0h-256c-70.692 0-128 57.308-128 128v0zM298.667 192c0.056-47.106 38.227-85.277 85.328-85.333h256.005c47.106 0.056 85.277 38.227 85.333 85.328v384.005h-426.667z" />
<glyph unicode="&#xe914;" glyph-name="notification" data-tags="notification" d="M426.667 149.333h170.667c0-47.128-38.205-85.333-85.333-85.333s-85.333 38.205-85.333 85.333v0zM810.667 256c0-35.346-28.654-64-64-64v0h-469.333c-35.346 0-64 28.654-64 64s28.654 64 64 64v0h21.333v170.667c0.014 102.715 72.601 188.473 169.277 208.789l1.39 0.244v46.966c0 23.564 19.103 42.667 42.667 42.667s42.667-19.103 42.667-42.667v0-46.966c98.066-20.561 170.653-106.319 170.667-209.032v-170.669h21.333c35.346 0 64-28.654 64-64v0zM768 256c-0.014 11.777-9.557 21.32-21.332 21.333h-64.001v213.333c0 94.257-76.41 170.667-170.667 170.667s-170.667-76.41-170.667-170.667v0-213.333h-64c-11.782 0-21.333-9.551-21.333-21.333s9.551-21.333 21.333-21.333v0h469.333c11.777 0.014 21.32 9.557 21.333 21.332v0.001z" />
<glyph unicode="&#xe915;" glyph-name="new_notification" data-tags="new_notification" d="M426.667 149.333h170.667c0-47.128-38.205-85.333-85.333-85.333s-85.333 38.205-85.333 85.333v0zM810.667 256c0-35.346-28.654-64-64-64v0h-469.333c-35.346 0-64 28.654-64 64s28.654 64 64 64v0h21.333v170.667c0.014 102.715 72.601 188.473 169.277 208.789l1.39 0.244v46.966c0 23.564 19.103 42.667 42.667 42.667s42.667-19.103 42.667-42.667v0-46.966c98.066-20.561 170.653-106.319 170.667-209.032v-170.669h21.333c35.346 0 64-28.654 64-64v0zM768 256c-0.014 11.777-9.557 21.32-21.332 21.333h-64.001v213.333c0 94.257-76.41 170.667-170.667 170.667s-170.667-76.41-170.667-170.667v0-213.333h-64c-11.782 0-21.333-9.551-21.333-21.333s9.551-21.333 21.333-21.333v0h469.333c11.777 0.014 21.32 9.557 21.333 21.332v0.001zM768 917.333c-47.128 0-85.333-38.205-85.333-85.333s38.205-85.333 85.333-85.333c47.128 0 85.333 38.205 85.333 85.333v0c0 47.128-38.205 85.333-85.333 85.333v0z" />
<glyph unicode="&#xe916;" glyph-name="disabled_notification" data-tags="disabled_notification" d="M813.696 749.696l-30.165 30.174-130.377-130.375c-26.775 24.416-60.138 42.057-97.111 49.96l-1.376 0.246v46.966c0 23.564-19.103 42.667-42.667 42.667s-42.667-19.103-42.667-42.667v0-46.966c-98.066-20.561-170.653-106.319-170.667-209.032v-170.669h-21.333c-35.346 0-64-28.654-64-64v0c0.124-13.159 4.299-25.319 11.335-35.321l-0.132 0.198-44.406-44.408 30.174-30.165zM512 661.333c42.687-0.010 81.679-15.824 111.444-41.909l-0.194 0.167-281.917-281.917v152.992c0.109 94.213 76.454 170.557 170.656 170.667h0.011zM256.617 252.958c-0.257 0.857-0.474 1.887-0.607 2.944l-0.010 0.098c0.014 11.777 9.557 21.32 21.332 21.333h3.66zM810.667 256c0-35.346-28.654-64-64-64v0h-430.325l42.667 42.667h387.659c11.782 0 21.333 9.551 21.333 21.333s-9.551 21.333-21.333 21.333v0h-64v213.333c-0.206 20.56-4.058 40.158-10.938 58.265l0.387-1.159 32.625 32.625c12.819-26.245 20.395-57.080 20.594-89.665v-170.734h21.333c35.346 0 64-28.654 64-64v0zM426.667 149.333h170.667c0-47.128-38.205-85.333-85.333-85.333s-85.333 38.205-85.333 85.333v0z" />
<glyph unicode="&#xe917;" glyph-name="important_notification" data-tags="important_notification" d="M746.667 320h-21.333v170.667c-0.014 102.715-72.601 188.473-169.277 208.789l-1.39 0.244v46.966c0 23.564-19.103 42.667-42.667 42.667s-42.667-19.103-42.667-42.667v0-46.966c-98.066-20.561-170.653-106.319-170.667-209.032v-170.669h-21.333c-35.346 0-64-28.654-64-64s28.654-64 64-64v0h469.333c35.346 0 64 28.654 64 64s-28.654 64-64 64v0zM746.667 234.667h-469.333c-11.782 0-21.333 9.551-21.333 21.333s9.551 21.333 21.333 21.333v0h64v213.333c0 94.257 76.41 170.667 170.667 170.667s170.667-76.41 170.667-170.667v0-213.333h64c11.782 0 21.333-9.551 21.333-21.333s-9.551-21.333-21.333-21.333v0zM426.667 149.333h170.667c0-47.128-38.205-85.333-85.333-85.333s-85.333 38.205-85.333 85.333v0zM490.667 426.667v128c0 11.782 9.551 21.333 21.333 21.333s21.333-9.551 21.333-21.333v0-128c0-11.782-9.551-21.333-21.333-21.333s-21.333 9.551-21.333 21.333v0zM533.336 341.331c0-11.782-9.551-21.333-21.333-21.333s-21.333 9.551-21.333 21.333c0 11.782 9.551 21.333 21.333 21.333v0c11.782 0 21.333-9.551 21.333-21.333v0z" />
<glyph unicode="&#xe918;" glyph-name="announcement" data-tags="announcement" d="M725.175 681.417c-16.176-0.033-31.278-4.602-44.111-12.501l0.366 0.21-53.696-32.216c-18.797-11.458-41.533-18.242-65.853-18.242 0 0 0 0 0 0h-305.88c-94.257 0-170.667-76.41-170.667-170.667s76.41-170.667 170.667-170.667v0h10.667l24.164-96.651c4.648-18.148 20.856-31.349 40.148-31.349 0 0 0 0 0 0h0.013c22.857 0.001 41.385 18.53 41.385 41.387 0 3.565-0.451 7.024-1.298 10.325l0.063-0.287-19.142 76.576h209.88c0 0 0 0 0.001 0 24.32 0 47.056-6.783 66.42-18.56l-0.567 0.32 53.696-32.219c12.466-7.691 27.569-12.26 43.736-12.291h0.009c0.014 0 0.030 0 0.047 0 47.19 0 85.446 38.255 85.446 85.446 0 0.007 0 0.014 0 0.022v-0.001 295.904c0 0.007 0 0.015 0 0.023 0 47.187-38.253 85.44-85.44 85.44-0.018 0-0.037 0-0.055 0h0.003zM384 320h-128c-70.692 0-128 57.308-128 128s57.308 128 128 128v0h128zM768 300.049c-0.062-23.622-19.202-42.752-42.821-42.799h-0.004c-8.069 0.033-15.592 2.342-21.969 6.316l0.177-0.103-53.695 32.213c-25.063 15.278-55.379 24.323-87.807 24.323h-135.214v256h135.214c32.428 0.003 62.744 9.046 88.564 24.747l-0.756-0.427 53.695 32.218c6.201 3.872 13.725 6.179 21.786 6.211h0.009c23.622-0.048 42.759-19.177 42.822-42.79v-0.006zM938.667 448c0-47.128-38.205-85.333-85.333-85.333v0 170.667c47.128 0 85.333-38.205 85.333-85.333v0z" />
<glyph unicode="&#xe919;" glyph-name="announcement_disabled" data-tags="announcement_disabled" d="M659.815 656.156l-32.081-19.247c-18.797-11.458-41.533-18.242-65.853-18.242 0 0 0 0 0 0h-305.88c-94.257 0-170.667-76.41-170.667-170.667s76.41-170.667 170.667-170.667v0h10.667l2.865-11.461-89.401-89.403 30.174-30.165 603.392 603.392-30.165 30.174zM323.659 320h-67.659c-70.692 0-128 57.308-128 128s57.308 128 128 128v0h128v-195.659zM426.667 576h135.214c6.81 0.081 13.422 0.548 19.92 1.383l-0.848-0.089-154.286-154.286zM783.011 658.669c17.015-15.417 27.657-37.598 27.657-62.265 0-0.159 0-0.317-0.001-0.476v0.024-295.904c0-0.006 0-0.013 0-0.020 0-47.19-38.255-85.446-85.446-85.446-0.016 0-0.033 0-0.049 0h0.003c-16.176 0.031-31.279 4.6-44.111 12.501l0.366-0.21-53.696 32.219c-18.797 11.457-41.533 18.24-65.853 18.24 0 0 0 0-0.001 0h-160.206l42.667 42.667h117.539c32.429 0 62.745-9.045 88.563-24.75l-0.755 0.427 53.695-32.213c6.2-3.872 13.723-6.181 21.783-6.214h0.009c23.623 0.047 42.763 19.178 42.825 42.793v295.91c0.001 0.085 0.001 0.185 0.001 0.285 0 12.925-5.961 24.459-15.283 32l-0.078 0.061zM938.667 448c0-47.128-38.205-85.333-85.333-85.333v0 170.667c47.128 0 85.333-38.205 85.333-85.333v0zM371.143 200.758c0.785-3.013 1.236-6.473 1.236-10.038 0-22.857-18.529-41.387-41.387-41.387 0 0 0 0 0 0h-0.013c-15.399 0.099-28.775 8.661-35.721 21.265l-0.107 0.212 66.784 66.784z" />
<glyph unicode="&#xe91a;" glyph-name="pin" data-tags="pin" d="M682.667 448h-7.112l-28.56 171.372c44 3.62 78.339 40.223 78.339 84.846 0 47.008-38.108 85.116-85.116 85.116-0.077 0-0.153 0-0.23 0h-255.988c-0.065 0-0.141 0-0.218 0-47.008 0-85.116-38.108-85.116-85.116 0-44.623 34.338-81.225 78.032-84.825l0.306-0.020-28.56-171.372h-7.112c-47.128 0-85.333-38.205-85.333-85.333v0-85.333h213.333v-213.333l42.667-42.667 42.667 42.667v213.333h213.333v85.333c0 47.128-38.205 85.333-85.333 85.333v0zM725.333 320h-426.667v42.667c0.028 23.553 19.114 42.639 42.664 42.667h43.26l5.94 35.654 36.18 217.094-46.193 3.815c-21.971 1.614-39.185 19.835-39.185 42.078 0 0.009 0 0.019 0 0.028v-0.001c0.028 23.553 19.114 42.639 42.664 42.667h256.003c23.553-0.028 42.639-19.114 42.667-42.664v-0.003c0-0.009 0-0.019 0-0.029 0-22.241-17.213-40.462-39.044-42.067l-0.139-0.008-46.194-3.815 42.121-252.748h43.255c23.553-0.028 42.639-19.114 42.667-42.664v-0.003z" />
<glyph unicode="&#xe91b;" glyph-name="unpin" data-tags="unpin" d="M846.901 601.88l-181.021 181.021c-15.417 15.488-36.753 25.072-60.327 25.072-47.008 0-85.115-38.107-85.115-85.115 0-21.113 7.688-40.431 20.416-55.307l-0.097 0.116-141.377-100.984-5.029 5.029c-15.442 15.442-36.776 24.994-60.34 24.994s-44.897-9.551-60.34-24.994l-60.338-60.339 150.849-150.849-150.849-150.852v-60.338h60.338l150.852 150.849 150.849-150.849 60.339 60.338c15.442 15.442 24.994 36.776 24.994 60.34s-9.551 44.897-24.994 60.34l-5.029 5.029 100.984 141.375c14.762-12.639 34.086-20.332 55.206-20.332 47.008 0 85.115 38.107 85.115 85.115 0 23.582-9.59 44.924-25.083 60.339l-0.004 0.003zM816.732 511.372c-7.636-7.646-18.19-12.376-29.849-12.376-10.592 0-20.273 3.904-27.681 10.352l0.051-0.043-35.362 29.969-148.935-208.505 30.586-30.586c7.71-7.726 12.477-18.391 12.477-30.169s-4.767-22.443-12.478-30.17l-30.168-30.171-301.701 301.701 30.172 30.169c7.726 7.71 18.391 12.477 30.169 12.477s22.443-4.767 30.17-12.478l30.588-30.588 208.501 148.938-29.966 35.359c-6.405 7.358-10.31 17.039-10.31 27.633 0 11.659 4.73 22.213 12.375 29.849v0c7.726 7.709 18.391 12.477 30.169 12.477s22.443-4.767 30.17-12.477l181.020-181.020c7.71-7.726 12.477-18.391 12.477-30.17s-4.767-22.442-12.477-30.17l0.001 0.001z" />
<glyph unicode="&#xe91c;" glyph-name="show" data-tags="show" d="M512 576c70.692 0 128-57.308 128-128s-57.308-128-128-128c-70.692 0-128 57.308-128 128v0c0.082 70.66 57.341 127.918 127.992 128h0.008zM512 618.667c-94.257 0-170.667-76.41-170.667-170.667s76.41-170.667 170.667-170.667c94.257 0 170.667 76.41 170.667 170.667v0c0 94.257-76.41 170.667-170.667 170.667v0zM512 704c152.899-0.419 284.836-89.744 346.876-218.986l1.002-2.316c4.821-10.177 7.635-22.11 7.635-34.7 0-12.588-2.814-24.519-7.846-35.199l0.214 0.504c-62.738-131.816-194.858-221.302-347.879-221.302s-285.14 89.486-346.883 218.982l-0.996 2.32c-4.821 10.177-7.635 22.11-7.635 34.7 0 12.588 2.814 24.519 7.846 35.199l-0.214-0.504c63.044 131.558 194.98 220.883 347.825 221.302h0.056zM512 746.667c-0.018 0-0.039 0-0.060 0-169.996 0-316.771-99.421-385.351-243.29l-1.106-2.578c-7.378-15.476-11.687-33.634-11.687-52.799s4.309-37.322 12.011-53.558l-0.324 0.759c69.712-146.449 216.503-245.868 386.516-245.868s316.804 99.419 385.409 243.29l1.107 2.578c7.378 15.476 11.687 33.634 11.687 52.799s-4.309 37.322-12.011 53.558l0.324-0.759c-69.686 146.447-216.461 245.868-386.458 245.868-0.020 0-0.039 0-0.059 0h0.003z" />
<glyph unicode="&#xe91d;" glyph-name="hide" data-tags="hide" d="M898.521 500.8c-29.243 60.788-70.193 111.67-120.299 151.537l-0.872 0.67-30.549-30.546c47.791-36.829 86.061-83.641 112.084-137.479l0.995-2.283c4.821-10.177 7.636-22.11 7.636-34.701 0-12.588-2.814-24.52-7.846-35.199l0.214 0.504c-62.447-131.789-194.38-221.307-347.221-221.307-58.382 0-113.714 13.061-163.232 36.422l2.335-0.99-31.717-31.715c56.143-29.235 122.601-46.383 193.064-46.383 164.256 0 306.748 93.182 377.498 229.568l1.115 2.363q3.523 6.908 6.791 13.94c7.379 15.478 11.689 33.637 11.689 52.803 0 19.163-4.308 37.32-12.009 53.555l0.324-0.759zM828.785 794.959c-3.861 3.861-9.194 6.249-15.085 6.249s-11.225-2.388-15.085-6.249l-94.744-94.745q-7.075 3.612-14.281 6.959c-52.441 24.937-113.953 39.499-178.867 39.499-169.662 0-316.091-99.478-384.14-243.288l-1.099-2.582c-7.379-15.477-11.688-33.635-11.688-52.8s4.309-37.323 12.012-53.559l-0.324 0.759c29.245-60.781 70.209-111.653 120.333-151.496l0.875-0.671-81.647-81.647c-3.86-3.861-6.248-9.194-6.248-15.085s2.388-11.224 6.248-15.085v0c3.861-3.861 9.194-6.249 15.086-6.249s11.225 2.388 15.086 6.249l633.571 633.569c3.861 3.861 6.25 9.195 6.25 15.086s-2.388 11.226-6.25 15.086v0zM396.827 393.167c-7.993 16.007-12.717 34.855-12.827 54.796v0.037c0.082 70.659 57.341 127.918 127.992 128h0.008c19.978-0.109 38.828-4.831 55.573-13.154l-0.736 0.331zM598.193 594.534c-24.898 15.162-55.010 24.138-87.219 24.138-93.691 0-169.643-75.952-169.643-169.643 0-32.208 8.976-62.32 24.562-87.97l-0.424 0.752-88.094-88.093c-47.893 36.721-86.23 83.487-112.264 137.315l-0.99 2.271c-4.82 10.176-7.634 22.108-7.634 34.698s2.814 24.522 7.848 35.202l-0.214-0.504c63.044 131.557 194.979 220.881 347.822 221.302h0.056c58.042-0.236 112.937-13.466 162.005-36.928l-2.287 0.985zM512 320c-19.978 0.111-38.826 4.834-55.57 13.157l0.736-0.331-31.357-31.357c24.899-15.163 55.012-24.139 87.221-24.139 93.691 0 169.643 75.952 169.643 169.643 0 32.209-8.976 62.321-24.564 87.972l0.424-0.752-31.357-31.357c7.992-16.008 12.715-34.857 12.825-54.799v-0.037c-0.083-70.659-57.341-127.917-127.992-128h-0.008z" />
<glyph unicode="&#xe91e;" glyph-name="calendar" data-tags="calendar" d="M725.333 789.333h-42.667v21.333c0 11.782-9.551 21.333-21.333 21.333s-21.333-9.551-21.333-21.333v0-21.333h-256v21.333c0 11.782-9.551 21.333-21.333 21.333s-21.333-9.551-21.333-21.333v0-21.333h-42.667c-70.692 0-128-57.308-128-128v0-426.667c0-70.692 57.308-128 128-128v0h426.667c70.692 0 128 57.308 128 128v0 426.667c0 70.692-57.308 128-128 128v0zM810.667 234.667c-0.056-47.106-38.227-85.277-85.328-85.333h-426.672c-47.106 0.056-85.277 38.227-85.333 85.328v341.338h597.333zM810.667 618.667h-597.333v42.667c0.056 47.106 38.227 85.277 85.328 85.333h42.672v-21.333c0-11.782 9.551-21.333 21.333-21.333s21.333 9.551 21.333 21.333v0 21.333h256v-21.333c0-11.782 9.551-21.333 21.333-21.333s21.333 9.551 21.333 21.333v0 21.333h42.667c47.106-0.056 85.277-38.227 85.333-85.328v-0.005z" />
<glyph unicode="&#xe91f;" glyph-name="event" data-tags="event" d="M725.333 789.333h-42.667v21.333c0 11.782-9.551 21.333-21.333 21.333s-21.333-9.551-21.333-21.333v0-21.333h-256v21.333c0 11.782-9.551 21.333-21.333 21.333s-21.333-9.551-21.333-21.333v0-21.333h-42.667c-70.692 0-128-57.308-128-128v0-426.667c0-70.692 57.308-128 128-128v0h426.667c70.692 0 128 57.308 128 128v0 426.667c0 70.692-57.308 128-128 128v0zM810.667 234.667c-0.056-47.106-38.227-85.277-85.328-85.333h-426.672c-47.106 0.056-85.277 38.227-85.333 85.328v341.338h597.333zM810.667 618.667h-597.333v42.667c0.056 47.106 38.227 85.277 85.328 85.333h42.672v-21.333c0-11.782 9.551-21.333 21.333-21.333s21.333 9.551 21.333 21.333v0 21.333h256v-21.333c0-11.782 9.551-21.333 21.333-21.333s21.333 9.551 21.333 21.333v0 21.333h42.667c47.106-0.056 85.277-38.227 85.333-85.328v-0.005zM725.333 362.667c0-47.128-38.205-85.333-85.333-85.333s-85.333 38.205-85.333 85.333c0 47.128 38.205 85.333 85.333 85.333v0c47.128 0 85.333-38.205 85.333-85.333v0z" />
<glyph unicode="&#xe920;" glyph-name="time_slot" data-tags="time_slot" d="M725.333 789.333h-42.667v21.333c0 11.782-9.551 21.333-21.333 21.333s-21.333-9.551-21.333-21.333v0-21.333h-256v21.333c0 11.782-9.551 21.333-21.333 21.333s-21.333-9.551-21.333-21.333v0-21.333h-42.667c-70.692 0-128-57.308-128-128v0-426.667c0-70.692 57.308-128 128-128v0h426.667c70.692 0 128 57.308 128 128v0 426.667c0 70.692-57.308 128-128 128v0zM810.667 234.667c-0.056-47.106-38.227-85.277-85.328-85.333h-426.672c-47.106 0.056-85.277 38.227-85.333 85.328v341.338h597.333zM810.667 618.667h-597.333v42.667c0.056 47.106 38.227 85.277 85.328 85.333h42.672v-21.333c0-11.782 9.551-21.333 21.333-21.333s21.333 9.551 21.333 21.333v0 21.333h256v-21.333c0-11.782 9.551-21.333 21.333-21.333s21.333 9.551 21.333 21.333v0 21.333h42.667c47.106-0.056 85.277-38.227 85.333-85.328v-0.005zM384 362.667c0-23.564-19.103-42.667-42.667-42.667s-42.667 19.103-42.667 42.667c0 23.564 19.103 42.667 42.667 42.667v0c23.564 0 42.667-19.103 42.667-42.667v0zM554.667 362.667c0-23.564-19.103-42.667-42.667-42.667s-42.667 19.103-42.667 42.667c0 23.564 19.103 42.667 42.667 42.667v0c23.564 0 42.667-19.103 42.667-42.667v0zM725.333 362.667c0-23.564-19.103-42.667-42.667-42.667s-42.667 19.103-42.667 42.667c0 23.564 19.103 42.667 42.667 42.667v0c23.564 0 42.667-19.103 42.667-42.667v0z" />
<glyph unicode="&#xe921;" glyph-name="appointment_accepted" data-tags="appointment_accepted" d="M725.333 789.333h-42.667v21.333c0 11.782-9.551 21.333-21.333 21.333s-21.333-9.551-21.333-21.333v0-21.333h-256v21.333c0 11.782-9.551 21.333-21.333 21.333s-21.333-9.551-21.333-21.333v0-21.333h-42.667c-70.692 0-128-57.308-128-128v0-426.667c0-70.692 57.308-128 128-128v0h426.667c70.692 0 128 57.308 128 128v0 426.667c0 70.692-57.308 128-128 128v0zM810.667 234.667c-0.056-47.106-38.227-85.277-85.328-85.333h-426.672c-47.106 0.056-85.277 38.227-85.333 85.328v341.338h597.333zM810.667 618.667h-597.333v42.667c0.056 47.106 38.227 85.277 85.328 85.333h42.672v-21.333c0-11.782 9.551-21.333 21.333-21.333s21.333 9.551 21.333 21.333v0 21.333h256v-21.333c0-11.782 9.551-21.333 21.333-21.333s21.333 9.551 21.333 21.333v0 21.333h42.667c47.106-0.056 85.277-38.227 85.333-85.328v-0.005zM390.25 326.25c-3.705 3.832-5.989 9.060-5.989 14.821 0 11.782 9.551 21.333 21.333 21.333 5.761 0 10.988-2.283 14.827-5.994l68.474-68.474 155.771 194.731c3.944 4.901 9.942 8.010 16.666 8.010 11.788 0 21.344-9.556 21.344-21.344 0-5.064-1.763-9.715-4.709-13.375l0.032 0.041-170.667-213.333c-3.707-4.589-9.209-7.599-15.422-7.956l-0.057-0.003-1.187-0.041c-0.007 0-0.015 0-0.024 0-5.883 0-11.209 2.389-15.059 6.249v0z" />
<glyph unicode="&#xe922;" glyph-name="appointment_declined" data-tags="appointment_declined" d="M725.333 789.333h-42.667v21.333c0 11.782-9.551 21.333-21.333 21.333s-21.333-9.551-21.333-21.333v0-21.333h-256v21.333c0 11.782-9.551 21.333-21.333 21.333s-21.333-9.551-21.333-21.333v0-21.333h-42.667c-70.692 0-128-57.308-128-128v0-426.667c0-70.692 57.308-128 128-128v0h426.667c70.692 0 128 57.308 128 128v0 426.667c0 70.692-57.308 128-128 128v0zM810.667 234.667c-0.056-47.106-38.227-85.277-85.328-85.333h-426.672c-47.106 0.056-85.277 38.227-85.333 85.328v341.338h597.333zM810.667 618.667h-597.333v42.667c0.056 47.106 38.227 85.277 85.328 85.333h42.672v-21.333c0-11.782 9.551-21.333 21.333-21.333s21.333 9.551 21.333 21.333v0 21.333h256v-21.333c0-11.782 9.551-21.333 21.333-21.333s21.333 9.551 21.333 21.333v0 21.333h42.667c47.106-0.056 85.277-38.227 85.333-85.328v-0.005zM633.75 271.084c4.018-3.885 6.513-9.323 6.513-15.345 0-11.782-9.551-21.333-21.333-21.333-6.021 0-11.46 2.495-15.339 6.507l-91.591 91.589-91.583-91.585c-3.832-3.705-9.060-5.989-14.821-5.989-11.782 0-21.333 9.551-21.333 21.333 0 5.761 2.283 10.988 5.994 14.827l91.577 91.579-91.585 91.583c-3.705 3.832-5.989 9.060-5.989 14.821 0 11.782 9.551 21.333 21.333 21.333 5.761 0 10.988-2.283 14.827-5.994l91.579-91.577 91.583 91.584c3.832 3.705 9.060 5.989 14.821 5.989 11.782 0 21.333-9.551 21.333-21.333 0-5.761-2.283-10.988-5.994-14.827l-91.577-91.578z" />
<glyph unicode="&#xe923;" glyph-name="add_event" data-tags="add_event" d="M725.333 789.333h-42.667v21.333c0 11.782-9.551 21.333-21.333 21.333s-21.333-9.551-21.333-21.333v0-21.333h-256v21.333c0 11.782-9.551 21.333-21.333 21.333s-21.333-9.551-21.333-21.333v0-21.333h-42.667c-70.692 0-128-57.308-128-128v0-426.667c0-70.692 57.308-128 128-128v0h426.667c70.692 0 128 57.308 128 128v0 426.667c0 70.692-57.308 128-128 128v0zM810.667 234.667c-0.056-47.106-38.227-85.277-85.328-85.333h-426.672c-47.106 0.056-85.277 38.227-85.333 85.328v341.338h597.333zM810.667 618.667h-597.333v42.667c0.056 47.106 38.227 85.277 85.328 85.333h42.672v-21.333c0-11.782 9.551-21.333 21.333-21.333s21.333 9.551 21.333 21.333v0 21.333h256v-21.333c0-11.782 9.551-21.333 21.333-21.333s21.333 9.551 21.333 21.333v0 21.333h42.667c47.106-0.056 85.277-38.227 85.333-85.328v-0.005zM384 362.667c0 0.004 0 0.008 0 0.012 0 11.775 9.546 21.321 21.321 21.321 0.004 0 0.009 0 0.013 0h85.333v85.333c0 11.782 9.551 21.333 21.333 21.333s21.333-9.551 21.333-21.333v0-85.333h85.333c11.782 0 21.333-9.551 21.333-21.333s-9.551-21.333-21.333-21.333v0h-85.333v-85.333c0-11.782-9.551-21.333-21.333-21.333s-21.333 9.551-21.333 21.333v0 85.333h-85.333c-0.004 0-0.008 0-0.012 0-11.775 0-21.321 9.546-21.321 21.321 0 0.004 0 0.009 0 0.013v-0.001z" />
<glyph unicode="&#xe924;" glyph-name="appointment_late" data-tags="appointment_late" d="M725.333 789.333h-42.667v21.333c0 11.782-9.551 21.333-21.333 21.333s-21.333-9.551-21.333-21.333v0-21.333h-256v21.333c0 11.782-9.551 21.333-21.333 21.333s-21.333-9.551-21.333-21.333v0-21.333h-42.667c-70.692 0-128-57.308-128-128v0-426.667c0-70.692 57.308-128 128-128v0h426.667c70.692 0 128 57.308 128 128v0 426.667c0 70.692-57.308 128-128 128v0zM810.667 234.667c-0.056-47.106-38.227-85.277-85.328-85.333h-426.672c-47.106 0.056-85.277 38.227-85.333 85.328v341.338h597.333zM810.667 618.667h-597.333v42.667c0.056 47.106 38.227 85.277 85.328 85.333h42.672v-21.333c0-11.782 9.551-21.333 21.333-21.333s21.333 9.551 21.333 21.333v0 21.333h256v-21.333c0-11.782 9.551-21.333 21.333-21.333s21.333 9.551 21.333 21.333v0 21.333h42.667c47.106-0.056 85.277-38.227 85.333-85.328v-0.005zM533.338 256c0-11.782-9.551-21.333-21.333-21.333s-21.333 9.551-21.333 21.333c0 11.782 9.551 21.333 21.333 21.333v0c11.782 0 21.333-9.551 21.333-21.333v0zM533.338 469.336v-128.003c0-11.782-9.551-21.333-21.333-21.333s-21.333 9.551-21.333 21.333v0 128.003c0 11.782 9.551 21.333 21.333 21.333s21.333-9.551 21.333-21.333v0z" />
<glyph unicode="&#xe925;" glyph-name="date_and_time" data-tags="date_and_time" d="M725.333 789.333h-42.667v21.333c0 11.782-9.551 21.333-21.333 21.333s-21.333-9.551-21.333-21.333v0-21.333h-256v21.333c0 11.782-9.551 21.333-21.333 21.333s-21.333-9.551-21.333-21.333v0-21.333h-42.667c-70.692 0-128-57.308-128-128v0-426.667c0-70.692 57.308-128 128-128v0h426.667c70.692 0 128 57.308 128 128v0 426.667c0 70.692-57.308 128-128 128v0zM810.667 234.667c-0.056-47.106-38.227-85.277-85.328-85.333h-426.672c-47.106 0.056-85.277 38.227-85.333 85.328v426.672c0.056 47.106 38.227 85.277 85.328 85.333h42.672v-21.333c0-11.782 9.551-21.333 21.333-21.333s21.333 9.551 21.333 21.333v0 21.333h256v-21.333c0-11.782 9.551-21.333 21.333-21.333s21.333 9.551 21.333 21.333v0 21.333h42.667c47.106-0.056 85.277-38.227 85.333-85.328v-0.005zM512 661.333c-117.821 0-213.333-95.513-213.333-213.333s95.513-213.333 213.333-213.333c117.821 0 213.333 95.513 213.333 213.333v0c0 117.821-95.513 213.333-213.333 213.333v0zM512 277.333c-94.257 0-170.667 76.41-170.667 170.667s76.41 170.667 170.667 170.667c94.257 0 170.667-76.41 170.667-170.667v0c-0.109-94.213-76.454-170.557-170.656-170.667h-0.011zM618.664 448.003c0-11.782-9.551-21.333-21.333-21.333v0l-0.013 0.003-85.318-0.005c-11.782 0-21.333 9.551-21.333 21.333v0h-0.003v106.669h0.003c0.001 11.782 9.552 21.332 21.333 21.332s21.333-9.551 21.333-21.333c0 0 0-0.001 0-0.001l-0.003-0.013v-85.315l64.003-0.003c11.781-0.001 21.331-9.552 21.331-21.333v0z" />
<glyph unicode="&#xe926;" glyph-name="time" data-tags="time" d="M512 832c-212.077 0-384-171.923-384-384s171.923-384 384-384c212.077 0 384 171.923 384 384v0c0 212.077-171.923 384-384 384v0zM512 106.667c-188.513 0-341.333 152.82-341.333 341.333s152.82 341.333 341.333 341.333c188.513 0 341.333-152.82 341.333-341.333v0c-0.221-188.424-152.909-341.113-341.312-341.333h-0.021zM725.333 426.667c0-0.004 0-0.008 0-0.012 0-11.775-9.546-21.321-21.321-21.321-0.004 0-0.009 0-0.013 0h-213.333c-0.004 0-0.008 0-0.012 0-11.775 0-21.321 9.546-21.321 21.321 0 0.004 0 0.009 0 0.013v-0.001 256c0 11.782 9.551 21.333 21.333 21.333s21.333-9.551 21.333-21.333v0-234.667h192c0.004 0 0.008 0 0.012 0 11.775 0 21.321-9.546 21.321-21.321 0-0.004 0-0.009 0-0.013v0.001z" />
<glyph unicode="&#xe927;" glyph-name="stopwatch" data-tags="stopwatch" d="M746.594 652.843l54.948 54.948c3.77 3.844 6.096 9.116 6.096 14.93 0 11.781-9.55 21.331-21.331 21.331-5.815 0-11.086-2.327-14.934-6.1l-57.691-57.687c-50.080 37.192-112.064 61.054-179.375 65.274l-0.974 0.049v86.412h85.333c11.782 0 21.333 9.551 21.333 21.333s-9.551 21.333-21.333 21.333v0h-213.333c-11.782 0-21.333-9.551-21.333-21.333s9.551-21.333 21.333-21.333v0h85.333v-86.412c-179.137-11.543-320.060-159.663-320.060-340.697 0-188.529 152.833-341.363 341.363-341.363s341.363 152.833 341.363 341.363c0 97.579-40.942 185.595-106.585 247.807l-0.154 0.145zM512 106.667c-164.949 0-298.667 133.718-298.667 298.667s133.718 298.667 298.667 298.667c164.949 0 298.667-133.718 298.667-298.667v0c-0.193-164.872-133.795-298.474-298.648-298.667h-0.019zM533.333 597.376l0.375-211.56c0-0.016 0-0.036 0-0.055 0-11.765-9.529-21.304-21.289-21.321h-0.045c-11.763 0.011-21.298 9.531-21.333 21.287v0.003l-0.375 211.56c0 0.016 0 0.036 0 0.055 0 11.765 9.529 21.304 21.289 21.321h0.045c11.763-0.011 21.298-9.531 21.333-21.287v-0.003z" />
<glyph unicode="&#xe928;" glyph-name="alarm" data-tags="alarm" d="M310.091 758.091l-150.849-150.849c-19.177 19.282-31.031 45.863-31.031 75.213 0 58.91 47.756 106.667 106.667 106.667 29.35 0 55.931-11.854 75.218-31.035l-0.005 0.005zM853.333 405.333c0-188.513-152.82-341.333-341.333-341.333s-341.333 152.82-341.333 341.333c0 188.513 152.82 341.333 341.333 341.333v0c188.513 0 341.333-152.82 341.333-341.333v0zM810.667 405.333c0 164.949-133.718 298.667-298.667 298.667s-298.667-133.718-298.667-298.667c0-164.949 133.718-298.667 298.667-298.667v0c164.872 0.193 298.474 133.795 298.667 298.648v0.019zM864.758 758.091c-19.303 19.303-45.969 31.242-75.424 31.242s-56.121-11.939-75.424-31.242v0l150.849-150.849c19.303 19.303 31.242 45.969 31.242 75.424s-11.939 56.121-31.242 75.424v0zM405.333 789.333h192c11.782 0 21.333 9.551 21.333 21.333s-9.551 21.333-21.333 21.333v0h-192c-11.782 0-21.333-9.551-21.333-21.333s9.551-21.333 21.333-21.333v0zM649.604 339.042l-115.209 58.083v200.208c0 11.782-9.551 21.333-21.333 21.333s-21.333-9.551-21.333-21.333v0-226.458l138.667-69.917c2.796-1.441 6.101-2.285 9.604-2.285 11.778 0 21.327 9.548 21.327 21.327 0 8.276-4.714 15.45-11.602 18.986l-0.12 0.056z" />
<glyph unicode="&#xe929;" glyph-name="add_alarm" data-tags="add_alarm" d="M310.091 758.091l-150.849-150.849c-19.177 19.282-31.031 45.863-31.031 75.213 0 58.91 47.756 106.667 106.667 106.667 29.35 0 55.931-11.854 75.218-31.035l-0.005 0.005zM853.333 405.333c0-188.513-152.82-341.333-341.333-341.333s-341.333 152.82-341.333 341.333c0 188.513 152.82 341.333 341.333 341.333v0c188.513 0 341.333-152.82 341.333-341.333v0zM810.667 405.333c0 164.949-133.718 298.667-298.667 298.667s-298.667-133.718-298.667-298.667c0-164.949 133.718-298.667 298.667-298.667v0c164.872 0.193 298.474 133.795 298.667 298.648v0.019zM864.758 758.091c-19.303 19.303-45.969 31.242-75.424 31.242s-56.121-11.939-75.424-31.242v0l150.849-150.849c19.303 19.303 31.242 45.969 31.242 75.424s-11.939 56.121-31.242 75.424v0zM405.333 789.333h192c11.782 0 21.333 9.551 21.333 21.333s-9.551 21.333-21.333 21.333v0h-192c-11.782 0-21.333-9.551-21.333-21.333s9.551-21.333 21.333-21.333v0zM362.669 383.997h127.997v-127.997c0-11.782 9.551-21.333 21.333-21.333s21.333 9.551 21.333 21.333v0 127.997h127.997c11.782 0 21.333 9.551 21.333 21.333s-9.551 21.333-21.333 21.333v0h-127.997v127.997c0 11.782-9.551 21.333-21.333 21.333s-21.333-9.551-21.333-21.333v0-127.997h-127.997c-11.782 0-21.333-9.551-21.333-21.333s9.551-21.333 21.333-21.333v0z" />
<glyph unicode="&#xe92a;" glyph-name="alarm_added" data-tags="alarm_added" d="M310.091 758.091l-150.849-150.849c-19.177 19.282-31.031 45.863-31.031 75.213 0 58.91 47.756 106.667 106.667 106.667 29.35 0 55.931-11.854 75.218-31.035l-0.005 0.005zM853.333 405.333c0-188.513-152.82-341.333-341.333-341.333s-341.333 152.82-341.333 341.333c0 188.513 152.82 341.333 341.333 341.333v0c188.513 0 341.333-152.82 341.333-341.333v0zM810.667 405.333c0 164.949-133.718 298.667-298.667 298.667s-298.667-133.718-298.667-298.667c0-164.949 133.718-298.667 298.667-298.667v0c164.872 0.193 298.474 133.795 298.667 298.648v0.019zM864.758 758.091c-19.303 19.303-45.969 31.242-75.424 31.242s-56.121-11.939-75.424-31.242v0l150.849-150.849c19.303 19.303 31.242 45.969 31.242 75.424s-11.939 56.121-31.242 75.424v0zM405.333 789.333h192c11.782 0 21.333 9.551 21.333 21.333s-9.551 21.333-21.333 21.333v0h-192c-11.782 0-21.333-9.551-21.333-21.333s9.551-21.333 21.333-21.333v0zM470.396 256.021c6.24 0.335 11.729 3.29 15.429 7.776l0.029 0.037 192 234.667c2.997 3.646 4.814 8.361 4.814 13.5 0 11.783-9.552 21.335-21.335 21.335-6.644 0-12.578-3.037-16.491-7.798l-0.030-0.037-177.062-216.417-90 90c-3.832 3.705-9.060 5.989-14.821 5.989-11.782 0-21.333-9.551-21.333-21.333 0-5.761 2.283-10.988 5.994-14.827l106.661-106.661c3.851-3.862 9.177-6.252 15.061-6.252 0.007 0 0.014 0 0.022 0h-0.001z" />
<glyph unicode="&#xe92b;" glyph-name="alarm_disabled" data-tags="alarm_disabled" d="M874.667 810.667l-30.169 30.169-51.971-51.972c-1.247 0.053-2.711 0.083-4.182 0.083-29.073 0-55.392-11.793-74.434-30.856l-0.001-0.001 23.922-23.922-41.8-41.799c-52.145 34.046-115.986 54.297-184.557 54.297-188.223 0-340.807-152.585-340.807-340.807 0-68.571 20.251-132.412 55.099-185.869l-0.802 1.312-105.799-105.8 30.169-30.169zM213.333 405.333c0.193 164.872 133.795 298.474 298.648 298.667h0.019c56.511-0.079 109.29-15.986 154.163-43.524l-1.288 0.735-408.752-408.752c-26.803 43.584-42.71 96.363-42.789 152.852v0.022zM384 810.667c0 0.004 0 0.008 0 0.012 0 11.775 9.546 21.321 21.321 21.321 0.004 0 0.009 0 0.013 0h191.999c11.782 0 21.333-9.551 21.333-21.333s-9.551-21.333-21.333-21.333v0h-192c-0.004 0-0.008 0-0.012 0-11.775 0-21.321 9.546-21.321 21.321 0 0.004 0 0.009 0 0.013v-0.001zM159.242 607.242c-19.177 19.282-31.031 45.863-31.031 75.213 0 58.91 47.756 106.667 106.667 106.667 29.35 0 55.931-11.854 75.218-31.035l-0.005 0.005zM761.773 637.435c56.729-60.728 91.56-142.541 91.56-232.489 0-188.299-152.647-340.946-340.946-340.946-89.948 0-171.761 34.831-232.685 91.742l0.197-0.182 30.268 30.268c52.984-49.066 124.147-79.165 202.34-79.165 164.671 0 298.164 133.493 298.164 298.164 0 78.193-30.099 149.356-79.344 202.535l0.178-0.195zM864.758 607.242l-66.589 66.589 74.535 74.534c14.362-17.966 23.047-41.017 23.047-66.097 0-29.284-11.841-55.803-30.996-75.029l0.003 0.003z" />
<glyph unicode="&#xe92c;" glyph-name="block" data-tags="block" d="M512 832c-212.077 0-384-171.923-384-384s171.923-384 384-384c212.077 0 384 171.923 384 384v0c0 212.077-171.923 384-384 384v0zM170.667 448c0 0.166 0 0.362 0 0.558 0 188.205 152.57 340.775 340.775 340.775 86.875 0 166.156-32.508 226.345-86.024l-0.346 0.302-481.052-481.052c-53.188 59.653-85.698 138.748-85.721 225.435v0.005zM512 106.667c-86.693 0.023-165.788 32.532-225.779 86.016l0.336-0.295 481.055 481.055c53.212-59.842 85.72-139.124 85.72-225.998 0-188.207-152.572-340.779-340.779-340.779-0.194 0-0.389 0-0.583 0h0.030z" />
<glyph unicode="&#xe92d;" glyph-name="reset" data-tags="reset" d="M896 448c-0.003-212.079-171.928-384.002-384.007-384.002-204.039 0-370.911 159.135-383.273 360.062l-0.053 1.087c-0.023 0.374-0.037 0.81-0.037 1.25 0 11.779 9.549 21.328 21.328 21.328 11.34 0 20.612-8.849 21.289-20.019l0.003-0.060c9.181-183.156 159.918-328.183 344.527-328.183 190.502 0 344.934 154.432 344.934 344.934s-154.432 344.934-344.934 344.934c-143.028 0-265.724-87.053-317.994-211.064l-0.848-2.267h123.648c11.782 0 21.333-9.551 21.333-21.333s-9.551-21.333-21.333-21.333v0h-128c-35.33 0.040-63.96 28.67-64 63.996v128.004c0 11.782 9.551 21.333 21.333 21.333s21.333-9.551 21.333-21.333v0-101.451c65.23 124.268 193.199 207.679 340.69 208.117h0.060l0.354-0.018 0.229 0.018c204.225-0.040 371.202-159.459 383.323-360.642l0.051-1.067c-0.007-2.006-0.3-3.942-0.839-5.771l0.037 0.146c0.241-5.568 0.845-11.041 0.845-16.666z" />
<glyph unicode="&#xe92e;" glyph-name="history" data-tags="history" d="M649.604 334.432l-115.209 58.083v200.208c0 11.782-9.551 21.333-21.333 21.333s-21.333-9.551-21.333-21.333v0-226.458l138.667-69.917c2.796-1.441 6.101-2.285 9.604-2.285 11.778 0 21.327 9.548 21.327 21.327 0 8.276-4.714 15.45-11.602 18.986l-0.12 0.056zM895.156 460.056c0.503 1.684 0.795 3.619 0.802 5.621v0.004c-12.172 202.251-179.15 361.669-383.371 361.708h-0.004l-0.229-0.018-0.354 0.018c-147.552-0.439-275.52-83.85-339.74-206.009l-1.010-2.108v101.451c0 11.782-9.551 21.333-21.333 21.333s-21.333-9.551-21.333-21.333v0-128c0.040-35.33 28.67-63.96 63.996-64h128.004c11.782 0 21.333 9.551 21.333 21.333s-9.551 21.333-21.333 21.333v0h-123.648c52.477 123.357 172.649 208.278 312.656 208.278 187.12 0 338.81-151.691 338.81-338.81s-151.691-338.81-338.81-338.81c-180.851 0-328.607 141.697-338.304 320.127l-0.037 0.861c-0.679 11.229-9.952 20.078-21.292 20.078-11.779 0-21.328-9.549-21.328-21.328 0-0.44 0.013-0.876 0.040-1.31l-0.003 0.060c12.415-202.014 179.287-361.148 383.326-361.148 212.080 0 384.005 171.924 384.007 384.003v0c0 5.625-0.604 11.099-0.844 16.666z" />
<glyph unicode="&#xe92f;" glyph-name="refresh" data-tags="refresh" d="M896 725.333v-128c-0.040-35.33-28.67-63.96-63.996-64h-128.004c-11.782 0-21.333 9.551-21.333 21.333s9.551 21.333 21.333 21.333v0h123.654c-51.884 126.14-173.818 213.334-316.118 213.334-181.445 0-329.779-141.764-340.284-320.573l-0.044-0.927c-0.658-11.239-9.933-20.104-21.279-20.104-0.004 0-0.009 0-0.013 0h0.001l-1.208 0.043c-11.246 0.651-20.119 9.93-20.119 21.281 0 0.436 0.013 0.869 0.039 1.298l-0.003-0.059c11.901 202.22 178.8 361.706 382.949 361.706 148.282 0 276.913-84.141 340.751-207.282l1.007-2.135v102.752c0 11.782 9.551 21.333 21.333 21.333s21.333-9.551 21.333-21.333v0zM875.875 447.957c-0.522 0.047-1.13 0.073-1.743 0.073-11.247 0-20.406-8.941-20.756-20.103l-0.001-0.032c-10.544-179.735-158.877-321.5-340.32-321.5-142.298 0-264.231 87.194-315.286 211.067l-0.827 2.266h123.641c11.782 0 21.333 9.551 21.333 21.333s-9.551 21.333-21.333 21.333v0h-128c-35.33-0.040-63.96-28.67-64-63.996v-128.004c0-11.782 9.551-21.333 21.333-21.333s21.333 9.551 21.333 21.333v0 102.799c64.832-125.302 193.474-209.465 341.772-209.465 204.146 0 371.043 159.488 382.886 360.663l0.049 1.045c0.023 0.37 0.036 0.803 0.036 1.239 0 11.351-8.873 20.63-20.061 21.279l-0.057 0.003z" />
<glyph unicode="&#xe930;" glyph-name="refresh_failed" data-tags="refresh_failed" d="M544 309.333c0-17.673-14.327-32-32-32s-32 14.327-32 32c0 17.673 14.327 32 32 32v0c17.673 0 32-14.327 32-32v0zM512 618.667c-0.004 0-0.008 0-0.012 0-11.775 0-21.321-9.546-21.321-21.321 0-0.004 0-0.009 0-0.013v0.001-170.667c0-11.782 9.551-21.333 21.333-21.333s21.333 9.551 21.333 21.333v0 170.667c0 0.004 0 0.008 0 0.012 0 11.775-9.546 21.321-21.321 21.321-0.004 0-0.009 0-0.013 0h0.001zM874.667 746.667c-0.004 0-0.008 0-0.012 0-11.775 0-21.321-9.546-21.321-21.321 0-0.004 0-0.009 0-0.013v0.001-102.752c-64.844 125.278-193.475 209.419-341.759 209.419-204.15 0-371.050-159.487-382.9-360.663l-0.049-1.046c-0.023-0.37-0.036-0.803-0.036-1.239 0-11.351 8.873-20.63 20.062-21.279l0.057-0.003 1.208-0.043c0.004 0 0.008 0 0.012 0 11.346 0 20.621 8.865 21.276 20.046l0.003 0.058c10.546 179.738 158.881 321.504 340.327 321.504 142.3 0 264.235-87.194 315.292-211.069l0.827-2.267h-123.654c-11.782 0-21.333-9.551-21.333-21.333s9.551-21.333 21.333-21.333v0h128c35.33 0.040 63.96 28.67 64 63.996v128.004c0 0.004 0 0.008 0 0.012 0 11.775-9.546 21.321-21.321 21.321-0.004 0-0.009 0-0.013 0h0.001zM875.875 447.957c-0.522 0.047-1.13 0.073-1.743 0.073-11.247 0-20.406-8.941-20.756-20.103l-0.001-0.032c-10.544-179.735-158.877-321.5-340.32-321.5-142.298 0-264.231 87.194-315.286 211.067l-0.827 2.266h123.641c11.782 0 21.333 9.551 21.333 21.333s-9.551 21.333-21.333 21.333v0h-128c-35.33-0.040-63.96-28.67-64-63.996v-128.004c0-11.782 9.551-21.333 21.333-21.333s21.333 9.551 21.333 21.333v0 102.799c64.832-125.302 193.474-209.465 341.772-209.465 204.146 0 371.043 159.488 382.886 360.663l0.049 1.045c0.023 0.37 0.036 0.803 0.036 1.239 0 11.351-8.873 20.63-20.061 21.279l-0.057 0.003z" />
<glyph unicode="&#xe931;" glyph-name="globe" data-tags="globe" d="M512 832c-212.077 0-384-171.923-384-384s171.923-384 384-384c212.077 0 384 171.923 384 384v0c0 212.077-171.923 384-384 384v0zM512 106.667c-30.877 0-69.919 46.833-96.742 128h193.485c-26.823-81.167-65.865-128-96.742-128zM402.995 277.333c-9.226 37.564-15.6 81.426-17.759 126.394l-0.061 1.606h253.651c-2.22-46.574-8.595-90.436-18.797-132.806l0.977 4.806zM173.63 405.333h168.815c2.239-46.673 8.259-90.57 17.807-133.135l-0.968 5.135h-142.432c-21.791 36.832-37.074 80.109-43.043 126.305l-0.179 1.695zM394.484 576h235.031c6.672-38.004 10.486-81.761 10.486-126.41 0-0.559-0.001-1.118-0.002-1.677v0.088h-256c-0.001 0.472-0.002 1.031-0.002 1.59 0 44.649 3.814 88.408 11.135 130.967l-0.648-4.557zM512 789.333c35.971 0 83.148-63.189 109.005-170.667h-218.010c25.857 107.477 73.034 170.667 109.005 170.667zM681.555 405.333h168.815c-6.147-47.891-21.43-91.168-44.083-129.58l0.862 1.58h-142.432c8.58 37.43 14.6 81.327 16.771 126.234l0.068 1.766zM682.667 448c0 0.13 0 0.285 0 0.439 0 45.030-3.607 89.219-10.548 132.291l0.629-4.73h155.458c15.879-37.854 25.111-81.847 25.128-127.993v-0.007zM807.148 618.667h-142.432c-11.638 60.261-34.483 113.685-66.42 160.4l0.941-1.458c89.282-24.318 162.376-81.459 207.039-157.34l0.872-1.602zM424.765 777.609c-30.997-45.258-53.843-98.682-65.048-156.266l-0.434-2.677h-142.432c45.537 77.483 118.631 134.623 205.513 158.383l2.401 0.56zM195.797 576h155.455c-6.312-38.342-9.919-82.53-9.919-127.561 0-0.154 0-0.309 0-0.463v0.024h-170.667c0.018 46.154 9.251 90.146 25.959 130.243l-0.829-2.243zM245.969 234.667h124.145c12.351-44.295 31.069-83.014 55.438-117.449l-0.788 1.173c-72.601 19.672-133.812 60.608-178.291 115.63l-0.506 0.646zM599.238 118.391c23.582 33.262 42.3 71.98 54.015 113.631l0.636 2.645h124.143c-44.985-55.668-106.195-96.605-176.399-115.72l-2.395-0.556z" />
<glyph unicode="&#xe932;" glyph-name="hourglass_wait" data-tags="hourglass_wait" d="M746.667 149.333h-21.336v82.961c0 0 0 0 0 0 0 58.513-23.557 111.525-61.705 150.067l0.018-0.018-36.289 36.675c-7.626 7.705-12.337 18.308-12.337 30.010 0 11.861 4.839 22.591 12.651 30.325l0.004 0.003 34.385 34.026c39.078 38.683 63.276 92.335 63.276 151.638v0 81.646h21.333c11.782 0 21.333 9.551 21.333 21.333s-9.551 21.333-21.333 21.333v0h-469.333c-11.782 0-21.333-9.551-21.333-21.333s9.551-21.333 21.333-21.333v0h21.333v-82.961c0 0 0 0 0 0 0-58.513 23.557-111.525 61.705-150.067l-0.018 0.018 36.289-36.675c7.626-7.705 12.338-18.307 12.338-30.010 0-11.861-4.84-22.592-12.652-30.325l-0.004-0.004-34.385-34.026c-39.078-38.682-63.275-92.334-63.275-151.636 0 0 0-0.001 0-0.001v0-81.647h-21.332c-11.782 0-21.333-9.551-21.333-21.333s9.551-21.333 21.333-21.333v0h469.333c11.782 0 21.333 9.551 21.333 21.333s-9.551 21.333-21.333 21.333v0zM341.331 149.333v81.646c0.129 47.42 19.455 90.301 50.613 121.303l0.007 0.007 34.385 34.029c15.609 15.484 25.271 36.941 25.271 60.656 0 23.397-9.406 44.597-24.642 60.025l0.009-0.009-36.289 36.677c-30.499 30.663-49.352 72.936-49.352 119.613 0 0.15 0 0.299 0.001 0.449v-0.023 82.961h341.333v-81.646c-0.129-47.42-19.455-90.301-50.613-121.303l-0.007-0.007-34.385-34.026c-15.608-15.484-25.27-36.942-25.27-60.656 0-23.398 9.406-44.599 24.643-60.028l-0.009 0.009 36.289-36.677c30.498-30.665 49.35-72.939 49.35-119.616 0-0.149 0-0.297-0.001-0.446v0.023-82.961z" />
<glyph unicode="&#xe933;" glyph-name="hourglass_wait_half" data-tags="hourglass_wait_half" d="M746.667 149.333h-21.336v82.961c0 0 0 0 0 0 0 58.513-23.557 111.525-61.705 150.067l0.018-0.018-36.289 36.675c-7.626 7.705-12.337 18.308-12.337 30.010 0 11.861 4.839 22.591 12.651 30.325l0.004 0.003 34.385 34.026c39.078 38.683 63.276 92.335 63.276 151.638v0 81.646h21.333c11.782 0 21.333 9.551 21.333 21.333s-9.551 21.333-21.333 21.333v0h-469.333c-11.782 0-21.333-9.551-21.333-21.333s9.551-21.333 21.333-21.333v0h21.333v-82.961c0 0 0 0 0 0 0-58.513 23.557-111.525 61.705-150.067l-0.018 0.018 36.289-36.675c7.626-7.705 12.338-18.307 12.338-30.010 0-11.861-4.84-22.592-12.652-30.325l-0.004-0.004-34.385-34.026c-39.078-38.682-63.275-92.334-63.275-151.636 0 0 0-0.001 0-0.001v0-81.647h-21.332c-11.782 0-21.333-9.551-21.333-21.333s9.551-21.333 21.333-21.333v0h469.333c11.782 0 21.333 9.551 21.333 21.333s-9.551 21.333-21.333 21.333v0zM618.664 149.333v85.331h0.005c0 0 0 0.001 0 0.001 0 58.91-47.756 106.667-106.667 106.667s-106.666-47.756-106.667-106.665h-0.005v-85.333h-64v81.646c0.129 47.42 19.455 90.301 50.613 121.303l0.007 0.007 34.385 34.029c15.609 15.484 25.271 36.941 25.271 60.656 0 23.397-9.406 44.597-24.642 60.025l0.009-0.009-36.289 36.677c-30.499 30.663-49.352 72.936-49.352 119.613 0 0.15 0 0.299 0.001 0.449v-0.023 82.961h341.333v-81.646c-0.129-47.42-19.455-90.301-50.613-121.303l-0.007-0.007-34.385-34.026c-15.608-15.484-25.27-36.942-25.27-60.656 0-23.398 9.406-44.599 24.643-60.028l-0.009 0.009 36.289-36.677c30.498-30.665 49.35-72.939 49.35-119.616 0-0.149 0-0.297-0.001-0.446v0.023-82.961z" />
<glyph unicode="&#xe934;" glyph-name="loading" data-tags="loading" d="M533.333 810.667v-128c0-11.782-9.551-21.333-21.333-21.333s-21.333 9.551-21.333 21.333v0 128c0 11.782 9.551 21.333 21.333 21.333s21.333-9.551 21.333-21.333v0zM512 234.709c-0.004 0-0.008 0-0.012 0-11.775 0-21.321-9.546-21.321-21.321 0-0.004 0-0.008 0-0.013v0.001-128c0-11.782 9.551-21.333 21.333-21.333s21.333 9.551 21.333 21.333v0 128c0 0.004 0 0.008 0 0.012 0 11.775-9.546 21.321-21.321 21.321-0.004 0-0.008 0-0.013 0h0.001zM270.646 719.542c-3.844 3.77-9.116 6.096-14.93 6.096-11.781 0-21.331-9.55-21.331-21.331 0-5.815 2.327-11.086 6.1-14.934l90.516-90.519c3.875-3.952 9.269-6.401 15.235-6.401 11.781 0 21.331 9.55 21.331 21.331 0 5.966-2.449 11.36-6.397 15.232l-0.003 0.003zM693 297.187c-3.875 3.952-9.269 6.401-15.235 6.401-11.781 0-21.331-9.55-21.331-21.331 0-5.966 2.449-11.36 6.397-15.232l90.524-90.524c3.875-3.952 9.269-6.401 15.235-6.401 11.781 0 21.331 9.55 21.331 21.331 0 5.966-2.449 11.36-6.397 15.232l-0.003 0.003zM298.688 448.021c0 0.004 0 0.008 0 0.012 0 11.775-9.546 21.321-21.321 21.321-0.004 0-0.009 0-0.013 0h-127.999c-11.782 0-21.333-9.551-21.333-21.333s9.551-21.333 21.333-21.333v0h128c0.004 0 0.008 0 0.012 0 11.775 0 21.321 9.546 21.321 21.321 0 0.004 0 0.009 0 0.013v-0.001zM874.645 469.354h-128c-11.782 0-21.333-9.551-21.333-21.333s9.551-21.333 21.333-21.333v0h128c11.782 0 21.333 9.551 21.333 21.333s-9.551 21.333-21.333 21.333v0zM331 297.187l-90.521-90.521c-3.952-3.875-6.401-9.269-6.401-15.235 0-11.781 9.55-21.331 21.331-21.331 5.966 0 11.36 2.449 15.232 6.397l90.525 90.522c3.952 3.875 6.401 9.269 6.401 15.235 0 11.781-9.55 21.331-21.331 21.331-5.966 0-11.36-2.449-15.232-6.397l-0.003-0.003zM677.917 592.604c0.007 0 0.016 0 0.025 0 5.883 0 11.208 2.389 15.058 6.249v0l90.521 90.521c3.952 3.875 6.401 9.269 6.401 15.235 0 11.781-9.55 21.331-21.331 21.331-5.966 0-11.36-2.449-15.232-6.397l-90.525-90.522c-3.86-3.86-6.247-9.193-6.247-15.084 0-11.781 9.549-21.331 21.33-21.333v0z" />
<glyph unicode="&#xe935;" glyph-name="laoding_wheel" data-tags="laoding_wheel" d="M597.333 789.333c0-47.128-38.205-85.333-85.333-85.333s-85.333 38.205-85.333 85.333c0 47.128 38.205 85.333 85.333 85.333v0c47.128 0 85.333-38.205 85.333-85.333v0zM753.348 764.015c-41.237 0-74.667-33.429-74.667-74.667s33.429-74.667 74.667-74.667c41.237 0 74.667 33.429 74.667 74.667v0c0 41.237-33.429 74.667-74.667 74.667v0zM853.333 512c-35.346 0-64-28.654-64-64s28.654-64 64-64c35.346 0 64 28.654 64 64v0c0 35.346-28.654 64-64 64v0zM752.896 260.057c-29.455 0-53.333-23.878-53.333-53.333s23.878-53.333 53.333-53.333c29.455 0 53.333 23.878 53.333 53.333v0c0 29.455-23.878 53.333-53.333 53.333v0zM270.584 249.018c-23.564 0-42.667-19.103-42.667-42.667s19.103-42.667 42.667-42.667c23.564 0 42.667 19.103 42.667 42.667v0c0 23.564-19.103 42.667-42.667 42.667 0 0 0 0 0 0v0zM512 149.333c-23.564 0-42.667-19.103-42.667-42.667s19.103-42.667 42.667-42.667c23.564 0 42.667 19.103 42.667 42.667v0c0 23.564-19.103 42.667-42.667 42.667v0zM170.667 490.667c-23.564 0-42.667-19.103-42.667-42.667s19.103-42.667 42.667-42.667c23.564 0 42.667 19.103 42.667 42.667v0c0 23.564-19.103 42.667-42.667 42.667v0zM256 704c-23.564 0-42.667-19.103-42.667-42.667s19.103-42.667 42.667-42.667c23.564 0 42.667 19.103 42.667 42.667v0c0 23.564-19.103 42.667-42.667 42.667v0z" />
<glyph unicode="&#xe936;" glyph-name="lock" data-tags="lock" d="M682.667 533.333h-0.016v128h-0.005c0 94.257-76.41 170.667-170.667 170.667s-170.667-76.41-170.667-170.667v0h-1.015v-128h1.036c-70.692 0-128-57.308-128-128v0-170.667c0-70.692 57.308-128 128-128v0h341.333c70.692 0 128 57.308 128 128v0 170.667c0 70.692-57.308 128-128 128v0zM382.964 656.294c0.516 1.478 0.877 3.192 1.011 4.97l0.004 0.069c0 70.692 57.308 128 128 128s128-57.308 128-128v0l0.005-0.026v-127.974h-257.021zM768 234.667c-0.055-47.106-38.227-85.278-85.328-85.333h-341.339c-47.106 0.056-85.277 38.227-85.333 85.328v170.672c0.056 47.106 38.227 85.277 85.328 85.333h341.339c47.106-0.055 85.278-38.227 85.333-85.328v-0.005zM575.997 319.997c0-35.346-28.654-64-64-64s-64 28.654-64 64c0 35.346 28.654 64 64 64v0c35.346 0 64-28.654 64-64v0z" />
<glyph unicode="&#xe937;" glyph-name="unlock" data-tags="unlock" d="M682.667 533.333h-256v128c0 94.257-76.41 170.667-170.667 170.667s-170.667-76.41-170.667-170.667v0c0-11.782 9.551-21.333 21.333-21.333s21.333 9.551 21.333 21.333v0c0 70.692 57.308 128 128 128s128-57.308 128-128v0-128h-42.667c-70.692 0-128-57.308-128-128v0-170.667c0-70.692 57.308-128 128-128v0h341.333c70.692 0 128 57.308 128 128v0 170.667c0 70.692-57.308 128-128 128v0zM768 234.667c-0.055-47.106-38.227-85.278-85.328-85.333h-341.339c-47.106 0.056-85.277 38.227-85.333 85.328v170.672c0.056 47.106 38.227 85.277 85.328 85.333h341.339c47.106-0.055 85.278-38.227 85.333-85.328v-0.005zM575.997 319.997c0-35.346-28.654-64-64-64s-64 28.654-64 64c0 35.346 28.654 64 64 64v0c35.346 0 64-28.654 64-64v0z" />
<glyph unicode="&#xe938;" glyph-name="key" data-tags="key" d="M298.667 448c0-23.564-19.103-42.667-42.667-42.667s-42.667 19.103-42.667 42.667c0 23.564 19.103 42.667 42.667 42.667v0c23.564 0 42.667-19.103 42.667-42.667v0zM938.667 448c0-23.564-19.103-42.667-42.667-42.667v0-106.667c0-11.782-9.551-21.333-21.333-21.333s-21.333 9.551-21.333 21.333v0 106.667h-85.333v-106.667c0-11.782-9.551-21.333-21.333-21.333s-21.333 9.551-21.333 21.333v0 106.667h-217.633c-20.544-98.072-106.306-170.667-209.023-170.667-117.821 0-213.333 95.513-213.333 213.333s95.513 213.333 213.333 213.333c102.718 0 188.48-72.595 208.779-169.278l0.244-1.389h388.3c23.564 0 42.667-19.103 42.667-42.667v0zM469.333 448c0 94.257-76.41 170.667-170.667 170.667s-170.667-76.41-170.667-170.667c0-94.257 76.41-170.667 170.667-170.667v0c94.213 0.109 170.557 76.454 170.667 170.656v0.011z" />
<glyph unicode="&#xe939;" glyph-name="search" data-tags="search" d="M847.084 137.243l-152.198 152.198c45.425 52.196 73.116 120.869 73.116 196.010 0 165.294-133.997 299.291-299.291 299.291s-299.291-133.997-299.291-299.291c0-165.294 133.997-299.291 299.291-299.291 75.141 0 143.815 27.691 196.373 73.425l-0.363-0.309 152.198-152.198c3.832-3.705 9.060-5.989 14.821-5.989 11.782 0 21.333 9.551 21.333 21.333 0 5.761-2.283 10.988-5.994 14.827l0.006-0.006zM469.333 228.826c-141.385 0-256 114.615-256 256s114.615 256 256 256c141.385 0 256-114.615 256-256v0c-0.165-141.318-114.681-255.835-255.984-256h-0.016z" />
<glyph unicode="&#xe93a;" glyph-name="share" data-tags="share" d="M640 362.667c-40.215-0.115-76.026-18.871-99.262-48.079l-0.2-0.26-164.294 91.271c4.91 12.589 7.755 27.163 7.755 42.401s-2.845 29.812-8.033 43.219l0.278-0.818 164.294 91.271c24.282-30.346 61.314-49.615 102.846-49.615 72.571 0 131.402 58.831 131.402 131.402s-58.831 131.402-131.402 131.402c-72.571 0-131.402-58.831-131.402-131.402 0-15.97 2.849-31.274 8.066-45.433l-0.294 0.911-164.291-91.279c-23.653 29.567-59.73 48.341-100.192 48.341-70.692 0-128-57.308-128-128s57.308-128 128-128c40.462 0 76.539 18.774 99.996 48.087l0.197 0.254 164.291-91.279c-4.521-12.538-7.135-27.007-7.135-42.086 0-70.521 57.169-127.69 127.69-127.69s127.69 57.169 127.69 127.69c0 70.521-57.169 127.69-127.69 127.69-0.109 0-0.218 0-0.327 0h0.017zM640 746.667c47.128 0 85.333-38.205 85.333-85.333s-38.205-85.333-85.333-85.333c-47.128 0-85.333 38.205-85.333 85.333v0c0.056 47.106 38.227 85.277 85.328 85.333h0.005zM256 362.667c-47.128 0-85.333 38.205-85.333 85.333s38.205 85.333 85.333 85.333c47.128 0 85.333-38.205 85.333-85.333v0c-0.056-47.106-38.227-85.277-85.328-85.333h-0.005zM640 149.333c-47.128 0-85.333 38.205-85.333 85.333s38.205 85.333 85.333 85.333c47.128 0 85.333-38.205 85.333-85.333v0c-0.056-47.106-38.227-85.277-85.328-85.333h-0.005z" />
<glyph unicode="&#xe93b;" glyph-name="open_with" data-tags="open_with" d="M768 405.333v-128c-0.080-70.66-57.339-127.92-127.992-128h-298.674c-70.66 0.080-127.92 57.339-128 127.992v298.675c0.080 70.66 57.339 127.92 127.992 128h170.674c11.782 0 21.333-9.551 21.333-21.333s-9.551-21.333-21.333-21.333v0h-170.667c-47.106-0.056-85.278-38.227-85.333-85.328v-298.672c0.056-47.106 38.227-85.278 85.328-85.333h298.672c47.106 0.056 85.278 38.227 85.333 85.328v128.005c0 11.782 9.551 21.333 21.333 21.333s21.333-9.551 21.333-21.333v0zM847.084 655.084l-128 128c-3.832 3.705-9.060 5.989-14.821 5.989-11.782 0-21.333-9.551-21.333-21.333 0-5.761 2.283-10.988 5.994-14.827l91.577-91.579h-55.168c-188.424-0.223-341.111-152.91-341.333-341.312v-0.021c0-11.782 9.551-21.333 21.333-21.333s21.333 9.551 21.333 21.333v0c0.198 164.869 133.797 298.468 298.647 298.667h55.187l-91.584-91.583c-4.018-3.885-6.513-9.323-6.513-15.345 0-11.782 9.551-21.333 21.333-21.333 6.021 0 11.46 2.495 15.339 6.507l128.006 128.006c3.861 3.86 6.249 9.192 6.249 15.083s-2.388 11.223-6.249 15.082v0z" />
<glyph unicode="&#xe93c;" glyph-name="star" data-tags="star" d="M512 799.194v0l106.702-155.691c11.050-15.937 27.005-27.791 45.654-33.451l0.606-0.158 181.043-53.368-115.098-149.589c-11.042-14.268-17.7-32.416-17.7-52.119 0-0.796 0.011-1.59 0.032-2.38l-0.003 0.117 5.19-188.672-177.835 63.239c-8.512 3.125-18.34 4.932-28.59 4.932s-20.079-1.807-29.184-5.121l0.593 0.189-177.835-63.239 5.19 188.672c0.019 0.674 0.030 1.467 0.030 2.263 0 19.703-6.658 37.851-17.847 52.317l0.147-0.197-115.098 149.589 181.039 53.367c19.257 5.818 35.212 17.673 46.077 33.328l0.185 0.282 106.581 155.677 0.12 0.013zM512 841.86c-0.047 0-0.102 0-0.157 0-14.505 0-27.307-7.289-34.944-18.403l-0.093-0.144-106.701-155.691c-5.518-7.976-13.498-13.906-22.828-16.727l-0.302-0.078-181.043-53.368c-17.836-5.38-30.603-21.662-30.603-40.926 0-9.838 3.33-18.899 8.924-26.116l-0.073 0.097 115.098-149.589c5.522-7.12 8.852-16.18 8.852-26.019 0-0.412-0.006-0.823-0.017-1.233l0.001 0.060-5.19-188.672c-0.013-0.388-0.020-0.844-0.020-1.301 0-23.515 19.062-42.577 42.577-42.577 5.161 0 10.107 0.918 14.684 2.6l-0.295-0.095 177.835 63.238c4.256 1.562 9.17 2.466 14.295 2.466s10.040-0.904 14.592-2.56l-0.297 0.094 177.835-63.238c4.282-1.587 9.228-2.505 14.389-2.505 23.515 0 42.577 19.062 42.577 42.577 0 0.458-0.007 0.914-0.022 1.368l0.002-0.066-5.19 188.672c-0.010 0.349-0.016 0.76-0.016 1.173 0 9.838 3.33 18.899 8.924 26.116l-0.073-0.097 115.098 149.589c5.521 7.12 8.851 16.18 8.851 26.018 0 19.264-12.767 35.546-30.301 40.847l-0.302 0.079-181.041 53.368c-9.632 2.899-17.613 8.829-23.038 16.663l-0.093 0.142-106.701 155.691c-7.73 11.258-20.532 18.546-35.036 18.546-0.056 0-0.111 0-0.167 0h0.009z" />
<glyph unicode="&#xe93d;" glyph-name="star_half" data-tags="star_half" d="M512 799.194v0l106.702-155.691c11.050-15.937 27.005-27.791 45.654-33.451l0.606-0.158 181.043-53.368-115.098-149.589c-11.042-14.268-17.7-32.416-17.7-52.119 0-0.796 0.011-1.59 0.032-2.38l-0.003 0.117 5.19-188.672-177.835 63.239c-8.497 3.123-18.309 4.929-28.542 4.929-0.017 0-0.035 0-0.052 0h0.003c0 2.617-0.119 567.131-0.119 567.131l0.119 0.013zM512 841.86c-0.047 0-0.102 0-0.157 0-14.505 0-27.307-7.289-34.944-18.403l-0.093-0.144-106.701-155.691c-5.518-7.976-13.498-13.906-22.828-16.727l-0.302-0.078-181.043-53.368c-17.836-5.38-30.603-21.662-30.603-40.926 0-9.838 3.33-18.899 8.924-26.116l-0.073 0.097 115.098-149.589c5.522-7.12 8.852-16.18 8.852-26.019 0-0.412-0.006-0.823-0.017-1.233l0.001 0.060-5.19-188.672c-0.013-0.388-0.020-0.844-0.020-1.301 0-23.515 19.062-42.577 42.577-42.577 5.161 0 10.107 0.918 14.684 2.6l-0.295-0.095 177.835 63.238c4.256 1.562 9.17 2.466 14.295 2.466s10.040-0.904 14.592-2.56l-0.297 0.094 177.835-63.238c4.282-1.587 9.228-2.505 14.389-2.505 23.515 0 42.577 19.062 42.577 42.577 0 0.458-0.007 0.914-0.022 1.368l0.002-0.066-5.19 188.672c-0.010 0.349-0.016 0.76-0.016 1.173 0 9.838 3.33 18.899 8.924 26.116l-0.073-0.097 115.098 149.589c5.521 7.12 8.851 16.18 8.851 26.018 0 19.264-12.767 35.546-30.301 40.847l-0.302 0.079-181.041 53.368c-9.632 2.899-17.613 8.829-23.038 16.663l-0.093 0.142-106.701 155.691c-7.73 11.258-20.532 18.546-35.036 18.546-0.056 0-0.111 0-0.167 0h0.009z" />
<glyph unicode="&#xe93e;" glyph-name="star_filled" data-tags="star_filled" d="M512 841.86c-0.047 0-0.102 0-0.157 0-14.505 0-27.307-7.289-34.944-18.403l-0.093-0.144-106.701-155.691c-5.518-7.976-13.498-13.906-22.828-16.727l-0.302-0.078-181.043-53.367c-17.836-5.38-30.603-21.662-30.603-40.926 0-9.838 3.33-18.899 8.924-26.116l-0.073 0.097 115.098-149.589c5.522-7.12 8.852-16.18 8.852-26.019 0-0.412-0.006-0.823-0.017-1.233l0.001 0.060-5.19-188.672c-0.013-0.388-0.020-0.844-0.020-1.301 0-23.515 19.062-42.577 42.577-42.577 5.161 0 10.107 0.918 14.684 2.6l-0.295-0.095 177.835 63.238c4.256 1.562 9.17 2.466 14.295 2.466s10.040-0.904 14.592-2.56l-0.297 0.094 177.835-63.238c4.282-1.587 9.228-2.505 14.389-2.505 23.515 0 42.577 19.062 42.577 42.577 0 0.458-0.007 0.914-0.022 1.368l0.002-0.066-5.19 188.672c-0.010 0.349-0.016 0.76-0.016 1.173 0 9.838 3.33 18.899 8.924 26.116l-0.073-0.097 115.098 149.589c5.521 7.12 8.851 16.18 8.851 26.018 0 19.264-12.767 35.546-30.301 40.847l-0.302 0.079-181.041 53.368c-9.632 2.899-17.613 8.829-23.038 16.663l-0.093 0.142-106.701 155.691c-7.73 11.258-20.532 18.546-35.036 18.546-0.056 0-0.111 0-0.167 0h0.009z" />
<glyph unicode="&#xe93f;" glyph-name="heart" data-tags="heart" d="M682.667 704c11.651-0.019 23.027-1.144 34.045-3.276l-1.13 0.182c79.234-17.325 137.679-86.895 137.679-170.116 0-2.335-0.046-4.66-0.137-6.972l0.010 0.332c-7.786-180.955-247.939-321.359-321.357-360.081-5.724-3.121-12.536-4.956-19.777-4.956s-14.054 1.835-19.998 5.065l0.221-0.11c-73.418 38.722-313.571 179.126-321.357 360.081-0.081 1.98-0.127 4.305-0.127 6.64 0 83.221 58.445 152.791 136.529 169.905l1.151 0.212c9.887 1.95 21.263 3.075 32.899 3.093h0.015c43.549-0.060 83.223-16.598 113.133-43.712l-0.142 0.127c15.158-13.855 35.425-22.343 57.675-22.343s42.518 8.488 57.741 22.403l-0.066-0.059c29.768 26.987 69.443 43.525 112.98 43.585h0.012zM682.667 746.667c-0.021 0-0.046 0-0.070 0-54.524 0-104.212-20.706-141.629-54.684l0.174 0.156c-7.632-7.066-17.881-11.4-29.143-11.4s-21.511 4.334-29.171 11.426l0.028-0.026c-37.246 33.822-86.936 54.528-141.462 54.528-0.021 0-0.042 0-0.063 0h0.003c-14.42-0.014-28.507-1.404-42.148-4.045l1.394 0.225c-99.162-20.897-172.528-107.659-172.528-211.558 0-3.156 0.068-6.295 0.202-9.418l-0.015 0.445c8.576-199.339 247.712-345.161 344.080-395.986 11.493-6.224 25.16-9.883 39.682-9.883s28.189 3.659 40.131 10.104l-0.449-0.221c96.367 50.826 335.502 196.648 344.080 395.986 0.119 2.677 0.186 5.817 0.186 8.972 0 103.898-73.366 190.661-171.118 211.309l-1.41 0.249c-12.246 2.416-26.333 3.805-40.742 3.82h-0.012z" />
<glyph unicode="&#xe940;" glyph-name="heart_filled" data-tags="heart_filled" d="M682.667 746.667c-0.021 0-0.046 0-0.070 0-54.524 0-104.212-20.706-141.629-54.684l0.174 0.156c-7.632-7.066-17.881-11.4-29.143-11.4s-21.511 4.334-29.171 11.426l0.028-0.026c-37.246 33.822-86.936 54.528-141.462 54.528-0.021 0-0.042 0-0.063 0h0.003c-14.42-0.014-28.507-1.404-42.148-4.045l1.394 0.225c-99.162-20.897-172.528-107.659-172.528-211.558 0-3.156 0.068-6.295 0.202-9.418l-0.015 0.445c8.576-199.339 247.712-345.161 344.080-395.986 11.493-6.224 25.16-9.883 39.682-9.883s28.189 3.659 40.131 10.104l-0.449-0.221c96.367 50.826 335.502 196.648 344.080 395.986 0.119 2.677 0.186 5.817 0.186 8.972 0 103.898-73.366 190.661-171.118 211.309l-1.41 0.249c-12.246 2.416-26.333 3.805-40.742 3.82h-0.012z" />
<glyph unicode="&#xe941;" glyph-name="heart_half" data-tags="heart_half" d="M512 638.071c22.24 0.064 42.489 8.538 57.745 22.406l-0.070-0.063c29.768 26.987 69.443 43.525 112.979 43.585h0.013c11.651-0.019 23.027-1.144 34.045-3.276l-1.13 0.182c79.234-17.325 137.679-86.895 137.679-170.116 0-2.335-0.046-4.66-0.137-6.972l0.010 0.332c-7.786-180.955-247.939-321.359-321.357-360.081-5.724-3.118-12.536-4.952-19.776-4.955h-0.001zM682.667 746.667c-0.021 0-0.046 0-0.070 0-54.524 0-104.212-20.706-141.629-54.684l0.174 0.156c-7.632-7.066-17.881-11.4-29.143-11.4s-21.511 4.334-29.171 11.426l0.028-0.026c-37.246 33.822-86.936 54.528-141.462 54.528-0.021 0-0.042 0-0.063 0h0.003c-14.42-0.014-28.507-1.404-42.148-4.045l1.394 0.225c-99.162-20.897-172.528-107.659-172.528-211.558 0-3.156 0.068-6.295 0.202-9.418l-0.015 0.445c8.576-199.339 247.712-345.161 344.080-395.986 11.493-6.224 25.16-9.883 39.682-9.883s28.189 3.659 40.131 10.104l-0.449-0.221c96.367 50.826 335.502 196.648 344.080 395.986 0.119 2.677 0.186 5.817 0.186 8.972 0 103.898-73.366 190.661-171.118 211.309l-1.41 0.249c-12.246 2.416-26.333 3.805-40.742 3.82h-0.012z" />
<glyph unicode="&#xe942;" glyph-name="like" data-tags="like" d="M785.297 576h-102.63l24.747 98.987c1.513 5.81 2.382 12.479 2.382 19.352 0 35.039-22.587 64.803-53.995 75.526l-0.562 0.167-0.092 0.032c-7.533 2.6-16.214 4.102-25.246 4.102-27.567 0-51.867-13.987-66.191-35.252l-0.18-0.284-51.529-77.294-128-128h-11.836c-14.908 25.625-42.213 42.594-73.487 42.667h-42.677c-47.128 0-85.333-38.205-85.333-85.333v0-298.667c0-47.128 38.205-85.333 85.333-85.333v0h42.667c28.558 0.025 53.819 14.118 69.23 35.722l0.176 0.259 143.927-35.982h234.508c62.598 0 114.701 44.937 125.812 104.311l0.123 0.793 38.789 213.333c1.313 6.884 2.064 14.802 2.064 22.896 0 70.692-57.307 127.999-127.999 128v0zM298.667 149.333h-42.667c-23.553 0.028-42.639 19.114-42.667 42.664v298.67c0.028 23.553 19.114 42.639 42.664 42.667h42.669c23.553-0.028 42.639-19.114 42.667-42.664v-298.67c-0.028-23.553-19.114-42.639-42.664-42.667h-0.003zM869.253 432.737l-38.787-213.333c-7.472-40.11-42.2-70.070-83.926-70.070-0.012 0-0.023 0-0.035 0h-229.253l-133.253 33.312v308.021h17.675l143.484 143.484 2.341 3.515 51.531 77.295c6.765 10.019 18.078 16.519 30.91 16.519 20.533 0 37.178-16.645 37.178-37.178 0-3.184-0.4-6.275-1.153-9.224l0.056 0.257-38-152.003h157.276c0.001 0 0.001 0 0.002 0 47.127 0 85.33-38.204 85.33-85.33 0-5.397-0.501-10.676-1.459-15.795l0.082 0.529z" />
<glyph unicode="&#xe943;" glyph-name="liked" data-tags="liked" d="M256 106.667v0c-47.128 0-85.333 38.205-85.333 85.333v0 298.667c0 47.128 38.205 85.333 85.333 85.333v0 0c47.128 0 85.333-38.205 85.333-85.333v0-298.667c0-47.128-38.205-85.333-85.333-85.333v0zM785.294 576h-102.627l24.747 98.99c1.513 5.809 2.382 12.478 2.382 19.349 0 35.039-22.587 64.803-53.995 75.526l-0.562 0.167-0.094 0.031c-7.529 2.596-16.205 4.094-25.23 4.094-27.57 0-51.874-13.984-66.206-35.245l-0.18-0.284-51.528-77.294-128-128v-394.667l128-32h234.508c62.598 0 114.701 44.937 125.812 104.311l0.123 0.793 38.789 213.333c1.313 6.884 2.064 14.802 2.064 22.896 0 70.692-57.308 128-128 128-0.001 0-0.001 0-0.002 0v0z" />
<glyph unicode="&#xe944;" glyph-name="dislike" data-tags="dislike" d="M238.703 277.333h102.63l-24.747-98.987c-1.513-5.81-2.382-12.479-2.382-19.352 0-35.039 22.587-64.803 53.995-75.526l0.562-0.167 0.091-0.031c7.533-2.6 16.214-4.102 25.246-4.102 27.567 0 51.867 13.987 66.191 35.252l0.18 0.284 51.53 77.294 128 128h11.836c14.908-25.625 42.213-42.594 73.487-42.667h42.677c47.128 0 85.333 38.205 85.333 85.333v0 298.667c0 47.128-38.205 85.333-85.333 85.333v0h-42.667c-28.558-0.025-53.819-14.118-69.23-35.722l-0.176-0.259-143.927 35.982h-234.508c-62.598 0-114.701-44.937-125.812-104.311l-0.123-0.793-38.789-213.333c-1.313-6.884-2.064-14.802-2.064-22.896 0-70.692 57.307-127.999 127.999-128v0zM725.333 704h42.667c23.553-0.028 42.639-19.114 42.667-42.664v-298.67c-0.028-23.553-19.114-42.639-42.664-42.667h-42.669c-23.553 0.028-42.639 19.114-42.667 42.664v298.67c0.028 23.553 19.114 42.639 42.664 42.667h0.003zM154.747 420.596l38.787 213.333c7.472 40.11 42.2 70.070 83.926 70.070 0.012 0 0.023 0 0.035 0h229.253l133.253-33.312v-308.021h-17.675l-143.484-143.484-2.341-3.515-51.531-77.295c-6.765-10.019-18.078-16.519-30.91-16.519-20.533 0-37.178 16.645-37.178 37.178 0 3.184 0.4 6.275 1.153 9.224l-0.056-0.257 38 152.003h-157.276c-0.001 0-0.001 0-0.002 0-47.127 0-85.33 38.204-85.33 85.33 0 5.397 0.501 10.676 1.459 15.795l-0.082-0.529z" />
<glyph unicode="&#xe945;" glyph-name="disliked" data-tags="disliked" d="M768 746.667v0c47.128 0 85.333-38.205 85.333-85.333v0-298.667c0-47.128-38.205-85.333-85.333-85.333v0 0c-47.128 0-85.333 38.205-85.333 85.333v0 298.667c0 47.128 38.205 85.333 85.333 85.333v0zM238.706 277.333h102.627l-24.747-98.99c-1.513-5.809-2.382-12.478-2.382-19.349 0-35.039 22.587-64.803 53.995-75.526l0.562-0.167 0.094-0.031c7.529-2.596 16.205-4.094 25.23-4.094 27.57 0 51.874 13.984 66.206 35.245l0.18 0.284 51.528 77.294 128 128v394.667l-128 32h-234.508c-62.598 0-114.701-44.937-125.812-104.311l-0.123-0.793-38.789-213.333c-1.313-6.884-2.064-14.802-2.064-22.896 0-70.692 57.308-128 128-128 0.001 0 0.001 0 0.002 0v0z" />
<glyph unicode="&#xe946;" glyph-name="brightness_low" data-tags="brightness_low" d="M210.304 689.359c-7.722 7.721-12.497 18.388-12.497 30.171 0 23.564 19.103 42.667 42.667 42.667s42.667-19.103 42.667-42.667c0-11.782-4.776-22.449-12.497-30.171v0c-7.721-7.721-18.387-12.496-30.169-12.496s-22.448 4.775-30.169 12.496v0zM813.696 206.641c7.722-7.721 12.497-18.388 12.497-30.171 0-23.564-19.103-42.667-42.667-42.667s-42.667 19.103-42.667 42.667c0 11.782 4.776 22.449 12.497 30.171v0c7.721 7.722 18.387 12.498 30.169 12.498s22.449-4.776 30.169-12.498v0zM170.667 448c0-23.564-19.103-42.667-42.667-42.667s-42.667 19.103-42.667 42.667c0 23.564 19.103 42.667 42.667 42.667v0c23.564 0 42.667-19.103 42.667-42.667v0zM938.667 448c0-23.564-19.103-42.667-42.667-42.667s-42.667 19.103-42.667 42.667c0 23.564 19.103 42.667 42.667 42.667v0c23.564 0 42.667-19.103 42.667-42.667v0zM270.641 206.641c7.722-7.721 12.497-18.388 12.497-30.171 0-23.564-19.103-42.667-42.667-42.667s-42.667 19.103-42.667 42.667c0 11.782 4.776 22.449 12.497 30.171v0c7.721 7.721 18.387 12.496 30.169 12.496s22.448-4.775 30.169-12.496v0zM813.696 749.701c7.722-7.721 12.497-18.388 12.497-30.171 0-23.564-19.103-42.667-42.667-42.667s-42.667 19.103-42.667 42.667c0 11.782 4.776 22.449 12.497 30.171v0c7.721 7.721 18.387 12.496 30.169 12.496s22.448-4.775 30.169-12.496v0zM469.333 832c0 23.564 19.103 42.667 42.667 42.667s42.667-19.103 42.667-42.667c0-23.564-19.103-42.667-42.667-42.667v0c-23.564 0-42.667 19.103-42.667 42.667v0zM554.667 64c0-23.564-19.103-42.667-42.667-42.667s-42.667 19.103-42.667 42.667c0 23.564 19.103 42.667 42.667 42.667v0c23.564 0 42.667-19.103 42.667-42.667v0zM512 661.333c117.821 0 213.333-95.513 213.333-213.333s-95.513-213.333-213.333-213.333c-117.821 0-213.333 95.513-213.333 213.333v0c0.138 117.766 95.568 213.196 213.32 213.333h0.013zM512 704c-141.385 0-256-114.615-256-256s114.615-256 256-256c141.385 0 256 114.615 256 256v0c0 141.385-114.615 256-256 256v0z" />
<glyph unicode="&#xe947;" glyph-name="brightness_medium" data-tags="brightness_medium" d="M210.304 689.359c-7.722 7.721-12.497 18.388-12.497 30.171 0 23.564 19.103 42.667 42.667 42.667s42.667-19.103 42.667-42.667c0-11.782-4.776-22.449-12.497-30.171v0c-7.721-7.721-18.387-12.496-30.169-12.496s-22.448 4.775-30.169 12.496v0zM813.696 206.641c7.722-7.721 12.497-18.388 12.497-30.171 0-23.564-19.103-42.667-42.667-42.667s-42.667 19.103-42.667 42.667c0 11.782 4.776 22.449 12.497 30.171v0c7.721 7.722 18.387 12.498 30.169 12.498s22.449-4.776 30.169-12.498v0zM170.667 448c0-23.564-19.103-42.667-42.667-42.667s-42.667 19.103-42.667 42.667c0 23.564 19.103 42.667 42.667 42.667v0c23.564 0 42.667-19.103 42.667-42.667v0zM938.667 448c0-23.564-19.103-42.667-42.667-42.667s-42.667 19.103-42.667 42.667c0 23.564 19.103 42.667 42.667 42.667v0c23.564 0 42.667-19.103 42.667-42.667v0zM270.641 206.641c7.722-7.721 12.497-18.388 12.497-30.171 0-23.564-19.103-42.667-42.667-42.667s-42.667 19.103-42.667 42.667c0 11.782 4.776 22.449 12.497 30.171v0c7.721 7.721 18.387 12.496 30.169 12.496s22.448-4.775 30.169-12.496v0zM813.696 749.701c7.722-7.721 12.497-18.388 12.497-30.171 0-23.564-19.103-42.667-42.667-42.667s-42.667 19.103-42.667 42.667c0 11.782 4.776 22.449 12.497 30.171v0c7.721 7.721 18.387 12.496 30.169 12.496s22.448-4.775 30.169-12.496v0zM469.333 832c0 23.564 19.103 42.667 42.667 42.667s42.667-19.103 42.667-42.667c0-23.564-19.103-42.667-42.667-42.667v0c-23.564 0-42.667 19.103-42.667 42.667v0zM554.667 64c0-23.564-19.103-42.667-42.667-42.667s-42.667 19.103-42.667 42.667c0 23.564 19.103 42.667 42.667 42.667v0c23.564 0 42.667-19.103 42.667-42.667v0zM512 667.429v-6.095zM512 661.333c117.821 0 213.333-95.513 213.333-213.333s-95.513-213.333-213.333-213.333v0zM512 704c-141.385 0-256-114.615-256-256s114.615-256 256-256c141.385 0 256 114.615 256 256v0c0 141.385-114.615 256-256 256v0z" />
<glyph unicode="&#xe948;" glyph-name="brightness_high" data-tags="brightness_high" d="M512 704c-141.385 0-256-114.615-256-256s114.615-256 256-256c141.385 0 256 114.615 256 256v0c0 141.385-114.615 256-256 256v0zM210.304 689.359c-7.722 7.721-12.497 18.388-12.497 30.171 0 23.564 19.103 42.667 42.667 42.667s42.667-19.103 42.667-42.667c0-11.782-4.776-22.449-12.497-30.171v0c-7.721-7.721-18.387-12.496-30.169-12.496s-22.448 4.775-30.169 12.496v0zM813.696 206.641c7.722-7.721 12.497-18.388 12.497-30.171 0-23.564-19.103-42.667-42.667-42.667s-42.667 19.103-42.667 42.667c0 11.782 4.776 22.449 12.497 30.171v0c7.721 7.722 18.387 12.498 30.169 12.498s22.449-4.776 30.169-12.498v0zM170.667 448c0-23.564-19.103-42.667-42.667-42.667s-42.667 19.103-42.667 42.667c0 23.564 19.103 42.667 42.667 42.667v0c23.564 0 42.667-19.103 42.667-42.667v0zM938.667 448c0-23.564-19.103-42.667-42.667-42.667s-42.667 19.103-42.667 42.667c0 23.564 19.103 42.667 42.667 42.667v0c23.564 0 42.667-19.103 42.667-42.667v0zM270.641 206.641c7.722-7.721 12.497-18.388 12.497-30.171 0-23.564-19.103-42.667-42.667-42.667s-42.667 19.103-42.667 42.667c0 11.782 4.776 22.449 12.497 30.171v0c7.721 7.721 18.387 12.496 30.169 12.496s22.448-4.775 30.169-12.496v0zM813.696 749.701c7.722-7.721 12.497-18.388 12.497-30.171 0-23.564-19.103-42.667-42.667-42.667s-42.667 19.103-42.667 42.667c0 11.782 4.776 22.449 12.497 30.171v0c7.721 7.721 18.387 12.496 30.169 12.496s22.448-4.775 30.169-12.496v0zM469.333 832c0 23.564 19.103 42.667 42.667 42.667s42.667-19.103 42.667-42.667c0-23.564-19.103-42.667-42.667-42.667v0c-23.564 0-42.667 19.103-42.667 42.667v0zM554.667 64c0-23.564-19.103-42.667-42.667-42.667s-42.667 19.103-42.667 42.667c0 23.564 19.103 42.667 42.667 42.667v0c23.564 0 42.667-19.103 42.667-42.667v0z" />
<glyph unicode="&#xe949;" glyph-name="label" data-tags="label" d="M635.315 661.333c21.26-0.004 40.703-7.779 55.646-20.638l-0.112 0.094 149.333-128c18.291-15.742 29.802-38.921 29.802-64.789s-11.511-49.047-29.69-64.695l-0.112-0.094-149.333-128c-14.83-12.765-34.274-20.539-55.533-20.544h-336.65c-47.106 0.055-85.278 38.227-85.333 85.328v256.005c0.055 47.106 38.227 85.278 85.328 85.333h336.654zM635.315 704h-336.649c-70.692 0-128-57.308-128-128v0-256c0-70.692 57.308-128 128-128v0h336.649c0.001 0 0.001 0 0.002 0 31.891 0 61.057 11.663 83.468 30.956l-0.168-0.141 149.333 128c27.434 23.615 44.699 58.384 44.699 97.185s-17.265 73.57-44.531 97.044l-0.168 0.141-149.333 128c-22.243 19.152-51.409 30.815-83.3 30.815-0.001 0-0.002 0-0.002 0v0z" />
<glyph unicode="&#xe94a;" glyph-name="bookmark" data-tags="bookmark" d="M640 752.797c23.553-0.028 42.639-19.114 42.667-42.664v-551.23l-117.358 93.887c-14.466 11.65-33.064 18.7-53.308 18.7s-38.842-7.050-53.473-18.828l0.165 0.128-117.359-93.887v551.227c0.028 23.553 19.114 42.639 42.664 42.667h256.003zM640 795.464h-256c-47.128 0-85.333-38.205-85.333-85.333v0-551.227c0-0.017 0-0.036 0-0.056 0-23.578 19.113-42.691 42.691-42.691 0.063 0 0.126 0 0.189 0h-0.010c10.067 0.016 19.3 3.572 26.525 9.488l-0.074-0.059 117.36 93.888c7.233 5.825 16.531 9.349 26.653 9.349s19.421-3.525 26.736-9.414l-0.082 0.064 117.36-93.888c7.15-5.858 16.384-9.414 26.447-9.429h0.003c0.052 0 0.114 0 0.176 0 23.579 0 42.694 19.115 42.694 42.694 0 0.019 0 0.037 0 0.056v-0.003 551.227c0 47.128-38.205 85.333-85.333 85.333v0z" />
<glyph unicode="&#xe94b;" glyph-name="bookmarked" data-tags="bookmarked" d="M640 789.333h-256c-47.128 0-85.333-38.205-85.333-85.333v0-551.227c0-0.017 0-0.036 0-0.056 0-23.577 19.113-42.691 42.691-42.691 0.063 0 0.126 0 0.189 0h-0.010c10.067 0.017 19.3 3.572 26.525 9.488l-0.074-0.059 117.36 93.888c7.233 5.825 16.531 9.349 26.653 9.349s19.421-3.525 26.736-9.414l-0.082 0.064 117.36-93.888c7.15-5.858 16.384-9.414 26.447-9.429h0.003c0.052 0 0.114 0 0.176 0 23.579 0 42.694 19.115 42.694 42.694 0 0.019 0 0.037 0 0.056v-0.003 551.227c0 47.128-38.205 85.333-85.333 85.333v0z" />
</font>
</defs>
</svg>
